<svg xmlns="http://www.w3.org/2000/svg" xmlns:xlink="http://www.w3.org/1999/xlink" width="100" zoomAndPan="magnify" viewBox="0 0 75 74.999997" height="100" preserveAspectRatio="xMidYMid meet" version="1.0"><defs><g/><clipPath id="980247dcfa"><path d="M 4.679688 4.679688 L 70.320312 4.679688 L 70.320312 70.320312 L 4.679688 70.320312 Z M 4.679688 4.679688 " clip-rule="nonzero"/></clipPath><clipPath id="ec3e6ec21f"><path d="M 37.5 4.679688 C 19.375 4.679688 4.679688 19.375 4.679688 37.5 C 4.679688 55.625 19.375 70.320312 37.5 70.320312 C 55.625 70.320312 70.320312 55.625 70.320312 37.5 C 70.320312 19.375 55.625 4.679688 37.5 4.679688 Z M 37.5 4.679688 " clip-rule="nonzero"/></clipPath></defs><g clip-path="url(#980247dcfa)"><g clip-path="url(#ec3e6ec21f)"><path fill="#f87727" d="M 4.679688 4.679688 L 70.320312 4.679688 L 70.320312 70.320312 L 4.679688 70.320312 Z M 4.679688 4.679688 " fill-opacity="1" fill-rule="nonzero"/></g></g><g fill="#ffffff" fill-opacity="1"><g transform="translate(19.668313, 52.102332)"><g><path d="M 6.953125 0 L 0.875 0 L 10.125 -26.8125 L 17.4375 -26.8125 L 26.671875 0 L 20.609375 0 L 18.609375 -6.109375 L 8.9375 -6.109375 Z M 10.375 -10.53125 L 17.1875 -10.53125 L 13.890625 -20.6875 L 13.671875 -20.6875 Z M 10.375 -10.53125 "/></g></g></g><g fill="#ffffff" fill-opacity="1"><g transform="translate(43.706211, 45.349095)"><g><path d="M 9.078125 -1.4375 L 9.078125 -7.59375 L 2.921875 -7.59375 L 2.921875 -11.828125 L 9.078125 -11.828125 L 9.078125 -17.984375 L 13.3125 -17.984375 L 13.3125 -11.828125 L 19.46875 -11.828125 L 19.46875 -7.59375 L 13.3125 -7.59375 L 13.3125 -1.4375 Z M 9.078125 -1.4375 "/></g></g></g></svg>