<svg xmlns="http://www.w3.org/2000/svg" xmlns:xlink="http://www.w3.org/1999/xlink" width="100" zoomAndPan="magnify" viewBox="0 0 75 74.999997" height="100" preserveAspectRatio="xMidYMid meet" version="1.0"><defs><clipPath id="5828eedfcc"><path d="M 2 7.515625 L 74.75 7.515625 L 74.75 66 L 2 66 Z M 2 7.515625 " clip-rule="nonzero"/></clipPath></defs><g clip-path="url(#5828eedfcc)"><path fill="#f87727" d="M 46.808594 48.710938 L 46.832031 48.710938 L 46.847656 48.714844 L 46.898438 48.722656 L 46.9375 48.738281 L 46.953125 48.738281 L 46.960938 48.746094 L 46.984375 48.757812 L 47.03125 48.796875 L 47.039062 48.804688 L 47.042969 48.804688 L 47.054688 48.8125 C 47.074219 48.835938 47.09375 48.863281 47.105469 48.894531 L 47.617188 49.992188 C 47.636719 50.039062 47.671875 50.082031 47.710938 50.109375 L 47.757812 50.136719 L 47.777344 50.148438 C 47.800781 50.160156 47.828125 50.164062 47.855469 50.167969 L 49.027344 50.34375 C 49.203125 50.367188 49.320312 50.527344 49.296875 50.699219 C 49.285156 50.765625 49.253906 50.828125 49.207031 50.875 L 49.003906 51.082031 L 48.332031 51.765625 C 48.261719 51.835938 48.230469 51.9375 48.246094 52.035156 L 48.457031 53.277344 C 48.460938 53.3125 48.460938 53.347656 48.457031 53.382812 L 48.453125 53.394531 L 48.453125 53.402344 L 48.441406 53.429688 L 48.421875 53.484375 L 48.410156 53.496094 L 48.402344 53.511719 L 48.371094 53.542969 L 48.339844 53.578125 L 48.324219 53.585938 L 48.3125 53.59375 L 48.277344 53.609375 L 48.230469 53.632812 L 48.214844 53.632812 L 48.195312 53.640625 L 48.09375 53.640625 C 48.058594 53.632812 48.023438 53.621094 47.992188 53.605469 L 46.972656 53.035156 C 46.949219 53.019531 46.921875 53.011719 46.898438 53.003906 L 46.820312 52.996094 L 46.742188 53.003906 C 46.714844 53.011719 46.691406 53.019531 46.667969 53.035156 L 45.648438 53.605469 C 45.613281 53.621094 45.582031 53.632812 45.546875 53.640625 L 45.441406 53.640625 L 45.425781 53.632812 L 45.40625 53.632812 L 45.359375 53.609375 L 45.324219 53.59375 L 45.300781 53.578125 L 45.269531 53.542969 L 45.238281 53.511719 L 45.230469 53.496094 L 45.21875 53.484375 L 45.199219 53.429688 L 45.1875 53.402344 L 45.1875 53.394531 L 45.183594 53.382812 C 45.179688 53.347656 45.179688 53.3125 45.183594 53.277344 L 45.390625 52.035156 C 45.40625 51.9375 45.375 51.835938 45.304688 51.765625 L 44.777344 51.226562 L 44.429688 50.875 C 44.382812 50.828125 44.355469 50.765625 44.34375 50.699219 C 44.316406 50.527344 44.4375 50.367188 44.609375 50.34375 L 45.785156 50.167969 C 45.8125 50.164062 45.839844 50.160156 45.863281 50.148438 L 45.878906 50.136719 L 45.925781 50.109375 C 45.96875 50.082031 46.003906 50.039062 46.023438 49.992188 L 46.535156 48.894531 C 46.546875 48.863281 46.566406 48.835938 46.585938 48.8125 L 46.609375 48.796875 L 46.65625 48.757812 L 46.679688 48.746094 L 46.6875 48.738281 L 46.703125 48.738281 L 46.742188 48.722656 L 46.792969 48.714844 Z M 38.484375 48.710938 L 38.511719 48.710938 L 38.535156 48.714844 L 38.605469 48.722656 L 38.652344 48.746094 L 38.671875 48.75 L 38.683594 48.757812 L 38.714844 48.769531 L 38.777344 48.824219 L 38.792969 48.832031 L 38.792969 48.835938 L 38.808594 48.847656 C 38.835938 48.878906 38.859375 48.914062 38.875 48.953125 L 39.550781 50.40625 C 39.582031 50.46875 39.625 50.523438 39.679688 50.566406 L 39.742188 50.597656 L 39.765625 50.613281 C 39.796875 50.628906 39.832031 50.636719 39.867188 50.640625 L 41.425781 50.871094 C 41.652344 50.90625 41.808594 51.117188 41.777344 51.34375 C 41.761719 51.433594 41.722656 51.511719 41.660156 51.578125 L 41.390625 51.851562 L 40.503906 52.753906 C 40.410156 52.847656 40.367188 52.984375 40.390625 53.113281 L 40.664062 54.757812 C 40.671875 54.804688 40.671875 54.851562 40.664062 54.898438 L 40.660156 54.914062 L 40.660156 54.925781 L 40.644531 54.960938 L 40.617188 55.03125 L 40.601562 55.050781 L 40.59375 55.070312 L 40.550781 55.109375 L 40.507812 55.15625 L 40.476562 55.179688 L 40.425781 55.199219 L 40.367188 55.226562 L 40.34375 55.230469 L 40.324219 55.238281 L 40.253906 55.238281 L 40.210938 55.242188 L 40.195312 55.238281 L 40.183594 55.238281 C 40.136719 55.230469 40.09375 55.214844 40.050781 55.191406 L 38.699219 54.4375 C 38.667969 54.417969 38.636719 54.40625 38.601562 54.398438 L 38.496094 54.382812 L 38.394531 54.398438 C 38.359375 54.40625 38.328125 54.417969 38.296875 54.4375 L 36.945312 55.191406 C 36.902344 55.214844 36.859375 55.230469 36.8125 55.238281 L 36.800781 55.238281 L 36.785156 55.242188 L 36.742188 55.238281 L 36.671875 55.238281 L 36.652344 55.230469 L 36.628906 55.226562 L 36.570312 55.199219 L 36.519531 55.179688 L 36.503906 55.167969 L 36.484375 55.15625 L 36.445312 55.109375 L 36.402344 55.070312 L 36.394531 55.050781 L 36.378906 55.03125 L 36.351562 54.960938 L 36.335938 54.925781 L 36.335938 54.914062 L 36.332031 54.898438 C 36.324219 54.851562 36.324219 54.804688 36.332031 54.757812 L 36.605469 53.113281 C 36.628906 52.984375 36.585938 52.847656 36.492188 52.753906 L 35.792969 52.042969 L 35.335938 51.578125 C 35.273438 51.511719 35.234375 51.433594 35.21875 51.34375 C 35.1875 51.117188 35.34375 50.90625 35.570312 50.871094 L 37.128906 50.640625 C 37.164062 50.636719 37.199219 50.628906 37.230469 50.613281 L 37.253906 50.597656 L 37.316406 50.566406 C 37.371094 50.523438 37.414062 50.46875 37.445312 50.40625 L 38.117188 48.953125 C 38.136719 48.914062 38.160156 48.878906 38.1875 48.847656 L 38.203125 48.835938 L 38.203125 48.832031 L 38.21875 48.824219 L 38.28125 48.769531 L 38.3125 48.757812 L 38.324219 48.75 L 38.34375 48.746094 L 38.390625 48.722656 L 38.460938 48.714844 Z M 30.164062 48.710938 L 30.1875 48.710938 L 30.203125 48.714844 L 30.253906 48.722656 L 30.292969 48.738281 L 30.308594 48.738281 L 30.316406 48.746094 L 30.339844 48.757812 L 30.386719 48.796875 L 30.410156 48.8125 C 30.429688 48.835938 30.449219 48.863281 30.460938 48.894531 L 30.972656 49.992188 C 30.992188 50.039062 31.027344 50.082031 31.070312 50.109375 L 31.117188 50.136719 L 31.132812 50.148438 C 31.15625 50.160156 31.183594 50.164062 31.210938 50.167969 L 32.386719 50.34375 C 32.558594 50.367188 32.679688 50.527344 32.652344 50.699219 C 32.640625 50.765625 32.613281 50.828125 32.566406 50.875 L 32.359375 51.082031 L 31.691406 51.765625 C 31.621094 51.835938 31.589844 51.9375 31.605469 52.035156 L 31.8125 53.277344 C 31.816406 53.3125 31.816406 53.347656 31.8125 53.382812 L 31.808594 53.394531 L 31.808594 53.402344 L 31.796875 53.429688 L 31.777344 53.484375 L 31.765625 53.496094 L 31.757812 53.511719 L 31.726562 53.542969 L 31.695312 53.578125 L 31.671875 53.59375 L 31.636719 53.609375 L 31.589844 53.632812 L 31.570312 53.632812 L 31.554688 53.640625 L 31.449219 53.640625 C 31.414062 53.632812 31.382812 53.621094 31.347656 53.605469 L 30.328125 53.035156 C 30.304688 53.019531 30.28125 53.011719 30.253906 53.003906 L 30.175781 52.996094 L 30.097656 53.003906 C 30.074219 53.011719 30.046875 53.019531 30.023438 53.035156 L 29.003906 53.605469 C 28.972656 53.621094 28.9375 53.632812 28.902344 53.640625 L 28.800781 53.640625 L 28.78125 53.632812 L 28.765625 53.632812 L 28.71875 53.609375 L 28.683594 53.59375 L 28.671875 53.585938 L 28.65625 53.578125 L 28.625 53.542969 L 28.59375 53.511719 L 28.585938 53.496094 L 28.574219 53.484375 L 28.554688 53.429688 L 28.542969 53.402344 L 28.542969 53.394531 L 28.539062 53.382812 C 28.535156 53.347656 28.535156 53.3125 28.539062 53.277344 L 28.75 52.035156 C 28.765625 51.9375 28.734375 51.835938 28.664062 51.765625 L 28.132812 51.226562 L 27.789062 50.875 C 27.742188 50.828125 27.710938 50.765625 27.699219 50.699219 C 27.675781 50.527344 27.792969 50.367188 27.96875 50.34375 L 29.140625 50.167969 C 29.167969 50.164062 29.195312 50.160156 29.21875 50.148438 L 29.238281 50.136719 L 29.285156 50.109375 C 29.324219 50.082031 29.359375 50.039062 29.378906 49.992188 L 29.890625 48.894531 C 29.902344 48.863281 29.921875 48.835938 29.941406 48.8125 L 29.953125 48.804688 L 29.957031 48.804688 L 29.964844 48.796875 L 30.011719 48.757812 L 30.035156 48.746094 L 30.042969 48.738281 L 30.058594 48.738281 L 30.09375 48.722656 L 30.148438 48.714844 Z M 11.382812 48.449219 L 19.972656 48.449219 L 20.394531 49.136719 C 24.316406 54.949219 30.960938 58.769531 38.496094 58.769531 C 46.035156 58.769531 52.679688 54.949219 56.601562 49.136719 L 57.023438 48.449219 L 65.632812 48.449219 L 65.582031 48.550781 C 65.359375 48.890625 65.046875 49.171875 64.648438 49.351562 C 63.746094 49.757812 63.230469 50.722656 63.390625 51.699219 C 63.578125 52.835938 62.855469 53.921875 61.734375 54.1875 C 60.773438 54.414062 60.078125 55.257812 60.046875 56.246094 C 60.007812 57.398438 59.082031 58.324219 57.929688 58.363281 C 56.9375 58.394531 56.089844 59.089844 55.863281 60.058594 C 55.601562 61.179688 54.515625 61.90625 53.375 61.722656 C 52.398438 61.558594 51.433594 62.074219 51.027344 62.980469 C 50.667969 63.769531 49.898438 64.246094 49.082031 64.265625 L 48.824219 64.222656 L 48.820312 64.222656 C 48.546875 64.230469 48.265625 64.183594 47.996094 64.082031 L 47.523438 63.988281 L 46.851562 64.078125 C 46.402344 64.214844 45.996094 64.496094 45.707031 64.898438 C 45.203125 65.601562 44.355469 65.921875 43.550781 65.78125 L 43.433594 65.734375 L 43.292969 65.738281 C 43.027344 65.691406 42.765625 65.59375 42.519531 65.441406 L 41.921875 65.195312 L 41.402344 65.164062 C 40.933594 65.207031 40.480469 65.40625 40.121094 65.742188 C 39.699219 66.136719 39.164062 66.335938 38.625 66.335938 L 38.390625 66.292969 L 38.371094 66.292969 C 37.832031 66.292969 37.296875 66.097656 36.875 65.703125 C 36.691406 65.535156 36.492188 65.398438 36.273438 65.304688 L 35.765625 65.167969 L 35.144531 65.207031 C 34.914062 65.257812 34.6875 65.351562 34.476562 65.480469 C 33.988281 65.785156 33.421875 65.871094 32.898438 65.765625 L 32.8125 65.730469 L 32.640625 65.730469 C 32.113281 65.625 31.625 65.328125 31.289062 64.859375 C 31.144531 64.65625 30.96875 64.484375 30.777344 64.347656 L 30.152344 64.042969 L 29.707031 63.980469 C 29.46875 63.988281 29.230469 64.035156 29 64.121094 C 28.730469 64.222656 28.449219 64.269531 28.175781 64.261719 L 27.960938 64.21875 L 27.914062 64.226562 C 27.097656 64.207031 26.328125 63.726562 25.96875 62.9375 C 25.765625 62.488281 25.421875 62.132812 25.007812 61.910156 L 24.453125 61.71875 L 23.878906 61.71875 C 23.597656 61.765625 23.3125 61.753906 23.046875 61.695312 L 22.96875 61.664062 L 22.789062 61.65625 C 21.988281 61.480469 21.328125 60.859375 21.132812 60.015625 C 20.90625 59.050781 20.058594 58.355469 19.066406 58.324219 C 17.914062 58.285156 16.988281 57.359375 16.949219 56.207031 C 16.917969 55.21875 16.222656 54.371094 15.261719 54.148438 C 14.140625 53.882812 13.417969 52.796875 13.605469 51.660156 C 13.761719 50.683594 13.25 49.71875 12.347656 49.308594 C 11.949219 49.128906 11.636719 48.847656 11.414062 48.507812 Z M 15.394531 37.230469 L 15.96875 37.230469 C 16.300781 37.230469 16.5625 37.285156 16.761719 37.398438 C 16.957031 37.511719 17.101562 37.679688 17.1875 37.910156 C 17.273438 38.136719 17.316406 38.433594 17.316406 38.800781 C 17.316406 39.3125 17.226562 39.6875 17.046875 39.929688 C 16.867188 40.175781 16.527344 40.296875 16.027344 40.296875 L 15.394531 40.296875 Z M 39.632812 33.53125 L 40.261719 33.53125 C 40.605469 33.53125 40.859375 33.582031 41.019531 33.679688 C 41.179688 33.777344 41.285156 33.929688 41.335938 34.132812 C 41.382812 34.339844 41.40625 34.609375 41.40625 34.9375 C 41.40625 35.257812 41.375 35.515625 41.3125 35.707031 C 41.25 35.898438 41.132812 36.035156 40.964844 36.121094 C 40.796875 36.207031 40.5625 36.25 40.261719 36.25 L 39.632812 36.25 Z M 15.394531 33.523438 L 15.722656 33.523438 C 16.058594 33.523438 16.335938 33.554688 16.554688 33.617188 C 16.773438 33.679688 16.933594 33.800781 17.042969 33.976562 C 17.152344 34.152344 17.207031 34.402344 17.207031 34.722656 C 17.207031 35.03125 17.167969 35.285156 17.097656 35.488281 C 17.027344 35.691406 16.902344 35.839844 16.722656 35.9375 C 16.542969 36.035156 16.289062 36.082031 15.957031 36.082031 L 15.394531 36.082031 Z M 45.542969 33.5 L 46.152344 33.5 C 46.625 33.5 46.941406 33.613281 47.109375 33.84375 C 47.277344 34.070312 47.363281 34.414062 47.363281 34.871094 C 47.363281 35.191406 47.320312 35.457031 47.242188 35.660156 C 47.15625 35.867188 47.023438 36.019531 46.832031 36.109375 C 46.636719 36.203125 46.382812 36.25 46.0625 36.25 L 45.542969 36.25 Z M 59.417969 32.363281 L 59.417969 41.464844 L 63.261719 41.464844 L 63.261719 40.320312 L 61.082031 40.320312 L 61.082031 37.308594 L 62.777344 37.308594 L 62.777344 36.152344 L 61.082031 36.152344 L 61.082031 33.53125 L 63.238281 33.53125 L 63.238281 32.363281 Z M 50.257812 32.363281 L 50.257812 41.464844 L 51.902344 41.464844 L 51.902344 32.363281 Z M 43.882812 32.363281 L 43.882812 41.464844 L 45.542969 41.464844 L 45.542969 37.296875 L 46.308594 37.296875 L 47.410156 41.464844 L 49.070312 41.464844 L 47.800781 36.980469 C 48.085938 36.871094 48.308594 36.710938 48.46875 36.503906 C 48.632812 36.296875 48.746094 36.050781 48.8125 35.757812 C 48.878906 35.464844 48.914062 35.136719 48.914062 34.769531 C 48.914062 34.160156 48.804688 33.683594 48.582031 33.332031 C 48.359375 32.980469 48.039062 32.730469 47.617188 32.582031 C 47.195312 32.4375 46.675781 32.363281 46.0625 32.363281 Z M 37.96875 32.363281 L 37.96875 41.464844 L 39.632812 41.464844 L 39.632812 37.421875 L 40.53125 37.421875 C 41.023438 37.421875 41.453125 37.335938 41.816406 37.171875 C 42.179688 37.007812 42.464844 36.746094 42.667969 36.378906 C 42.867188 36.019531 42.96875 35.539062 42.96875 34.949219 C 42.96875 34.402344 42.886719 33.933594 42.726562 33.550781 C 42.566406 33.164062 42.316406 32.871094 41.972656 32.667969 C 41.632812 32.464844 41.191406 32.363281 40.644531 32.363281 Z M 29.832031 32.363281 L 29.832031 33.589844 L 31.28125 33.589844 L 31.28125 41.464844 L 32.941406 41.464844 L 32.941406 33.589844 L 34.367188 33.589844 L 34.367188 32.363281 Z M 19.984375 32.363281 L 19.984375 41.464844 L 23.824219 41.464844 L 23.824219 40.320312 L 21.648438 40.320312 L 21.648438 37.308594 L 23.339844 37.308594 L 23.339844 36.152344 L 21.648438 36.152344 L 21.648438 33.53125 L 23.804688 33.53125 L 23.804688 32.363281 Z M 13.734375 32.363281 L 13.734375 41.464844 L 16.351562 41.464844 C 16.777344 41.464844 17.152344 41.410156 17.46875 41.296875 C 17.785156 41.183594 18.054688 41.015625 18.265625 40.796875 C 18.480469 40.574219 18.640625 40.296875 18.75 39.964844 C 18.859375 39.632812 18.914062 39.246094 18.914062 38.8125 C 18.914062 38.378906 18.855469 38.007812 18.738281 37.699219 C 18.621094 37.394531 18.445312 37.144531 18.210938 36.953125 C 17.972656 36.761719 17.675781 36.636719 17.316406 36.578125 C 17.609375 36.523438 17.851562 36.421875 18.046875 36.269531 C 18.242188 36.113281 18.390625 35.90625 18.492188 35.644531 C 18.589844 35.382812 18.644531 35.066406 18.644531 34.703125 C 18.644531 34.246094 18.578125 33.867188 18.453125 33.566406 C 18.324219 33.265625 18.140625 33.027344 17.90625 32.851562 C 17.671875 32.675781 17.390625 32.550781 17.066406 32.476562 C 16.738281 32.402344 16.375 32.363281 15.96875 32.363281 Z M 55.789062 32.261719 C 55.121094 32.261719 54.601562 32.386719 54.222656 32.632812 C 53.84375 32.882812 53.582031 33.234375 53.429688 33.691406 C 53.28125 34.148438 53.207031 34.6875 53.207031 35.308594 L 53.207031 38.554688 C 53.207031 39.148438 53.28125 39.667969 53.429688 40.121094 C 53.582031 40.574219 53.84375 40.933594 54.222656 41.195312 C 54.601562 41.457031 55.121094 41.589844 55.789062 41.589844 C 56.433594 41.589844 56.933594 41.46875 57.289062 41.234375 C 57.644531 41 57.894531 40.671875 58.035156 40.257812 C 58.175781 39.839844 58.25 39.363281 58.25 38.824219 L 58.25 38.09375 L 56.65625 38.09375 L 56.65625 38.914062 C 56.65625 39.183594 56.636719 39.425781 56.609375 39.644531 C 56.578125 39.863281 56.503906 40.035156 56.390625 40.167969 C 56.273438 40.296875 56.078125 40.363281 55.800781 40.363281 C 55.558594 40.363281 55.371094 40.308594 55.230469 40.199219 C 55.09375 40.09375 55 39.929688 54.945312 39.71875 C 54.894531 39.503906 54.867188 39.234375 54.867188 38.902344 L 54.867188 34.949219 C 54.867188 34.671875 54.886719 34.421875 54.921875 34.203125 C 54.960938 33.980469 55.046875 33.804688 55.175781 33.671875 C 55.308594 33.542969 55.515625 33.476562 55.800781 33.476562 C 56.082031 33.476562 56.285156 33.539062 56.402344 33.660156 C 56.515625 33.785156 56.589844 33.953125 56.613281 34.160156 C 56.640625 34.371094 56.65625 34.605469 56.65625 34.859375 L 56.65625 35.644531 L 58.25 35.644531 L 58.25 34.882812 C 58.25 34.355469 58.175781 33.894531 58.023438 33.5 C 57.875 33.101562 57.621094 32.796875 57.265625 32.582031 C 56.910156 32.371094 56.417969 32.261719 55.789062 32.261719 Z M 26.929688 32.261719 C 26.203125 32.261719 25.632812 32.457031 25.210938 32.847656 C 24.792969 33.238281 24.585938 33.792969 24.585938 34.511719 C 24.585938 35.011719 24.679688 35.433594 24.871094 35.773438 C 25.0625 36.113281 25.316406 36.425781 25.640625 36.699219 L 26.785156 37.710938 C 27.085938 37.96875 27.324219 38.222656 27.503906 38.476562 C 27.683594 38.730469 27.773438 39.058594 27.773438 39.453125 C 27.773438 39.699219 27.71875 39.90625 27.605469 40.066406 C 27.492188 40.226562 27.300781 40.308594 27.03125 40.308594 C 26.792969 40.308594 26.601562 40.234375 26.453125 40.089844 C 26.308594 39.941406 26.199219 39.734375 26.128906 39.464844 C 26.058594 39.195312 26.015625 38.882812 26 38.53125 L 24.570312 38.8125 C 24.59375 39.414062 24.699219 39.917969 24.886719 40.328125 C 25.074219 40.742188 25.351562 41.054688 25.71875 41.269531 C 26.085938 41.480469 26.542969 41.589844 27.085938 41.589844 C 27.546875 41.589844 27.945312 41.492188 28.285156 41.300781 C 28.625 41.109375 28.890625 40.847656 29.082031 40.511719 C 29.273438 40.171875 29.367188 39.785156 29.367188 39.351562 C 29.367188 38.753906 29.234375 38.242188 28.96875 37.820312 C 28.703125 37.394531 28.382812 37.027344 28.007812 36.710938 L 26.875 35.710938 C 26.632812 35.503906 26.453125 35.296875 26.324219 35.101562 C 26.199219 34.902344 26.132812 34.648438 26.132812 34.339844 C 26.132812 34.101562 26.199219 33.902344 26.328125 33.742188 C 26.460938 33.578125 26.652344 33.5 26.898438 33.5 C 27.136719 33.5 27.316406 33.5625 27.441406 33.691406 C 27.566406 33.816406 27.652344 33.992188 27.699219 34.21875 C 27.75 34.441406 27.78125 34.699219 27.796875 34.980469 L 29.210938 34.734375 C 29.1875 34.40625 29.136719 34.09375 29.054688 33.796875 C 28.972656 33.5 28.847656 33.238281 28.679688 33.003906 C 28.507812 32.773438 28.28125 32.589844 28 32.460938 C 27.714844 32.328125 27.359375 32.261719 26.929688 32.261719 Z M 2 27.828125 L 74.996094 27.828125 L 70.890625 36.925781 L 74.996094 46.023438 L 2 46.023438 L 6.109375 36.925781 Z M 46.808594 20.292969 L 46.820312 20.296875 L 46.832031 20.292969 L 46.847656 20.296875 L 46.898438 20.304688 L 46.9375 20.320312 L 46.953125 20.324219 L 46.960938 20.332031 L 46.984375 20.339844 L 47.03125 20.378906 L 47.042969 20.390625 L 47.054688 20.398438 C 47.074219 20.421875 47.09375 20.445312 47.105469 20.476562 L 47.617188 21.574219 C 47.636719 21.621094 47.671875 21.664062 47.710938 21.695312 L 47.757812 21.71875 L 47.777344 21.730469 C 47.800781 21.742188 47.828125 21.75 47.855469 21.753906 L 49.027344 21.925781 C 49.203125 21.953125 49.320312 22.113281 49.296875 22.285156 C 49.285156 22.351562 49.253906 22.410156 49.207031 22.457031 L 49.003906 22.667969 L 48.332031 23.347656 C 48.261719 23.417969 48.230469 23.519531 48.246094 23.621094 L 48.457031 24.863281 C 48.460938 24.898438 48.460938 24.933594 48.457031 24.96875 L 48.453125 24.976562 L 48.453125 24.988281 L 48.441406 25.011719 L 48.421875 25.066406 L 48.410156 25.082031 L 48.402344 25.097656 L 48.339844 25.160156 L 48.324219 25.167969 L 48.3125 25.179688 L 48.277344 25.191406 L 48.230469 25.214844 L 48.214844 25.21875 L 48.195312 25.222656 L 48.144531 25.222656 L 48.113281 25.226562 L 48.101562 25.222656 L 48.09375 25.222656 C 48.058594 25.21875 48.023438 25.207031 47.992188 25.1875 L 46.972656 24.617188 C 46.949219 24.605469 46.921875 24.59375 46.898438 24.589844 L 46.820312 24.578125 L 46.742188 24.589844 C 46.714844 24.59375 46.691406 24.605469 46.667969 24.617188 L 45.648438 25.1875 C 45.613281 25.207031 45.582031 25.21875 45.546875 25.222656 L 45.535156 25.222656 L 45.527344 25.226562 L 45.492188 25.222656 L 45.441406 25.222656 L 45.425781 25.21875 L 45.40625 25.214844 L 45.359375 25.191406 L 45.324219 25.179688 L 45.3125 25.167969 L 45.300781 25.160156 L 45.238281 25.097656 L 45.230469 25.082031 L 45.21875 25.066406 L 45.199219 25.011719 L 45.1875 24.988281 L 45.1875 24.976562 L 45.183594 24.96875 C 45.179688 24.933594 45.179688 24.898438 45.183594 24.863281 L 45.390625 23.621094 C 45.40625 23.519531 45.375 23.417969 45.304688 23.347656 L 44.777344 22.8125 L 44.777344 22.808594 L 44.429688 22.457031 C 44.382812 22.410156 44.355469 22.351562 44.34375 22.285156 C 44.316406 22.113281 44.4375 21.953125 44.609375 21.925781 L 45.785156 21.753906 C 45.8125 21.75 45.839844 21.742188 45.863281 21.730469 L 45.878906 21.71875 L 45.925781 21.695312 C 45.96875 21.664062 46.003906 21.621094 46.023438 21.574219 L 46.535156 20.476562 C 46.546875 20.445312 46.566406 20.421875 46.585938 20.398438 L 46.597656 20.390625 L 46.597656 20.386719 L 46.609375 20.378906 L 46.65625 20.339844 L 46.679688 20.332031 L 46.6875 20.324219 L 46.703125 20.320312 L 46.742188 20.304688 L 46.792969 20.296875 Z M 30.164062 20.292969 L 30.175781 20.296875 L 30.1875 20.292969 L 30.203125 20.296875 L 30.253906 20.304688 L 30.292969 20.320312 L 30.308594 20.324219 L 30.316406 20.332031 L 30.339844 20.339844 L 30.386719 20.378906 L 30.398438 20.386719 L 30.398438 20.390625 L 30.410156 20.398438 C 30.429688 20.421875 30.449219 20.445312 30.460938 20.476562 L 30.972656 21.574219 C 30.992188 21.621094 31.027344 21.664062 31.070312 21.695312 L 31.117188 21.71875 L 31.132812 21.730469 C 31.15625 21.742188 31.183594 21.75 31.210938 21.753906 L 32.386719 21.925781 C 32.558594 21.953125 32.679688 22.113281 32.652344 22.285156 C 32.640625 22.351562 32.613281 22.410156 32.566406 22.457031 L 32.359375 22.667969 L 31.691406 23.347656 C 31.621094 23.417969 31.589844 23.519531 31.605469 23.621094 L 31.8125 24.863281 C 31.816406 24.898438 31.816406 24.933594 31.8125 24.96875 L 31.808594 24.976562 L 31.808594 24.988281 L 31.796875 25.011719 L 31.777344 25.066406 L 31.765625 25.082031 L 31.757812 25.097656 L 31.695312 25.160156 L 31.683594 25.167969 L 31.671875 25.179688 L 31.636719 25.191406 L 31.589844 25.214844 L 31.570312 25.21875 L 31.554688 25.222656 L 31.503906 25.222656 L 31.46875 25.226562 L 31.460938 25.222656 L 31.449219 25.222656 C 31.414062 25.21875 31.382812 25.207031 31.347656 25.1875 L 30.328125 24.617188 C 30.304688 24.605469 30.28125 24.59375 30.253906 24.589844 L 30.175781 24.578125 L 30.097656 24.589844 C 30.074219 24.59375 30.046875 24.605469 30.023438 24.617188 L 29.003906 25.1875 C 28.972656 25.207031 28.9375 25.21875 28.902344 25.222656 L 28.894531 25.222656 L 28.882812 25.226562 L 28.851562 25.222656 L 28.800781 25.222656 L 28.78125 25.21875 L 28.765625 25.214844 L 28.71875 25.191406 L 28.683594 25.179688 L 28.671875 25.167969 L 28.65625 25.160156 L 28.59375 25.097656 L 28.585938 25.082031 L 28.574219 25.066406 L 28.554688 25.011719 L 28.542969 24.988281 L 28.542969 24.976562 L 28.539062 24.96875 C 28.535156 24.933594 28.535156 24.898438 28.539062 24.863281 L 28.75 23.621094 C 28.765625 23.519531 28.734375 23.417969 28.664062 23.347656 L 28.132812 22.8125 L 28.132812 22.808594 L 27.789062 22.457031 C 27.742188 22.410156 27.710938 22.351562 27.699219 22.285156 C 27.675781 22.113281 27.792969 21.953125 27.96875 21.925781 L 29.140625 21.753906 C 29.167969 21.75 29.195312 21.742188 29.21875 21.730469 L 29.238281 21.71875 L 29.285156 21.695312 C 29.324219 21.664062 29.359375 21.621094 29.378906 21.574219 L 29.890625 20.476562 C 29.902344 20.445312 29.921875 20.421875 29.941406 20.398438 L 29.953125 20.390625 L 29.964844 20.378906 L 30.011719 20.339844 L 30.035156 20.332031 L 30.042969 20.324219 L 30.058594 20.320312 L 30.09375 20.304688 L 30.148438 20.296875 Z M 38.484375 18.609375 L 38.496094 18.613281 L 38.511719 18.609375 L 38.535156 18.617188 L 38.605469 18.625 L 38.652344 18.644531 L 38.671875 18.648438 L 38.683594 18.65625 L 38.714844 18.667969 L 38.777344 18.722656 L 38.792969 18.730469 L 38.792969 18.734375 L 38.808594 18.746094 C 38.835938 18.777344 38.859375 18.8125 38.875 18.851562 L 39.550781 20.304688 C 39.582031 20.371094 39.625 20.421875 39.679688 20.464844 L 39.742188 20.5 L 39.765625 20.511719 C 39.796875 20.527344 39.832031 20.535156 39.867188 20.542969 L 41.425781 20.773438 C 41.652344 20.804688 41.808594 21.015625 41.777344 21.246094 C 41.761719 21.332031 41.722656 21.414062 41.660156 21.476562 L 41.390625 21.75 L 41.390625 21.753906 L 40.503906 22.652344 C 40.410156 22.746094 40.367188 22.882812 40.390625 23.011719 L 40.664062 24.65625 C 40.671875 24.703125 40.671875 24.753906 40.664062 24.796875 L 40.660156 24.8125 L 40.660156 24.824219 L 40.644531 24.859375 L 40.617188 24.929688 L 40.601562 24.949219 L 40.59375 24.96875 L 40.507812 25.054688 L 40.476562 25.078125 L 40.425781 25.097656 L 40.367188 25.128906 L 40.34375 25.128906 L 40.324219 25.136719 L 40.253906 25.136719 L 40.210938 25.140625 L 40.195312 25.136719 L 40.183594 25.136719 C 40.136719 25.128906 40.09375 25.113281 40.050781 25.089844 L 38.699219 24.335938 C 38.667969 24.316406 38.636719 24.304688 38.601562 24.296875 L 38.496094 24.28125 L 38.394531 24.296875 C 38.359375 24.304688 38.328125 24.316406 38.296875 24.335938 L 36.945312 25.089844 C 36.902344 25.113281 36.859375 25.128906 36.8125 25.136719 L 36.800781 25.136719 L 36.785156 25.140625 L 36.742188 25.136719 L 36.671875 25.136719 L 36.652344 25.128906 L 36.628906 25.128906 L 36.570312 25.097656 L 36.519531 25.078125 L 36.503906 25.066406 L 36.484375 25.054688 L 36.445312 25.011719 L 36.402344 24.96875 L 36.394531 24.949219 L 36.378906 24.929688 L 36.351562 24.859375 L 36.335938 24.824219 L 36.335938 24.8125 L 36.332031 24.796875 C 36.324219 24.753906 36.324219 24.703125 36.332031 24.65625 L 36.605469 23.011719 C 36.628906 22.882812 36.585938 22.746094 36.492188 22.652344 L 35.792969 21.941406 L 35.335938 21.476562 C 35.273438 21.414062 35.234375 21.332031 35.21875 21.246094 C 35.1875 21.015625 35.34375 20.804688 35.570312 20.773438 L 37.128906 20.542969 C 37.164062 20.535156 37.199219 20.527344 37.230469 20.511719 L 37.253906 20.5 L 37.316406 20.464844 C 37.371094 20.421875 37.414062 20.371094 37.445312 20.304688 L 38.117188 18.851562 C 38.136719 18.8125 38.160156 18.777344 38.1875 18.746094 L 38.203125 18.734375 L 38.203125 18.730469 L 38.21875 18.722656 L 38.28125 18.667969 L 38.3125 18.65625 L 38.324219 18.648438 L 38.34375 18.644531 L 38.390625 18.625 L 38.460938 18.617188 Z M 38.363281 7.515625 L 38.605469 7.5625 L 38.632812 7.558594 C 39.167969 7.558594 39.707031 7.753906 40.128906 8.148438 C 40.308594 8.316406 40.511719 8.449219 40.730469 8.546875 L 41.234375 8.683594 L 41.84375 8.644531 C 42.078125 8.589844 42.300781 8.5 42.511719 8.367188 C 43.003906 8.0625 43.570312 7.976562 44.09375 8.082031 L 44.191406 8.117188 L 44.363281 8.121094 C 44.886719 8.226562 45.378906 8.523438 45.714844 8.992188 C 45.855469 9.195312 46.03125 9.363281 46.226562 9.503906 L 46.84375 9.808594 L 47.292969 9.867188 C 47.53125 9.859375 47.769531 9.8125 48.003906 9.726562 C 48.273438 9.621094 48.550781 9.578125 48.824219 9.585938 L 49.050781 9.632812 L 49.085938 9.625 C 49.902344 9.644531 50.671875 10.125 51.03125 10.914062 C 51.234375 11.363281 51.578125 11.71875 51.992188 11.941406 L 52.539062 12.128906 L 53.121094 12.128906 C 53.40625 12.082031 53.6875 12.09375 53.953125 12.152344 L 54.035156 12.1875 L 54.210938 12.195312 C 55.011719 12.371094 55.671875 12.992188 55.867188 13.832031 C 56.09375 14.796875 56.9375 15.488281 57.925781 15.523438 C 59.078125 15.5625 60.003906 16.488281 60.042969 17.640625 C 60.074219 18.632812 60.769531 19.476562 61.734375 19.703125 C 62.859375 19.964844 63.589844 21.050781 63.398438 22.191406 C 63.238281 23.167969 63.753906 24.132812 64.65625 24.539062 C 65.050781 24.71875 65.367188 25 65.589844 25.339844 L 65.605469 25.371094 L 57.003906 25.371094 L 56.601562 24.714844 C 52.679688 18.902344 46.035156 15.082031 38.496094 15.082031 C 30.960938 15.082031 24.316406 18.902344 20.394531 24.714844 L 19.992188 25.371094 L 11.371094 25.371094 L 11.40625 25.300781 C 11.628906 24.960938 11.945312 24.679688 12.339844 24.5 C 13.242188 24.09375 13.757812 23.128906 13.597656 22.148438 C 13.40625 21.011719 14.136719 19.921875 15.261719 19.660156 C 16.226562 19.4375 16.921875 18.59375 16.953125 17.601562 C 16.992188 16.449219 17.917969 15.523438 19.070312 15.484375 C 20.058594 15.449219 20.902344 14.757812 21.128906 13.792969 C 21.390625 12.671875 22.476562 11.945312 23.613281 12.128906 C 24.59375 12.292969 25.558594 11.777344 25.964844 10.871094 C 26.324219 10.082031 27.09375 9.605469 27.910156 9.585938 L 28.15625 9.628906 L 28.171875 9.625 C 28.445312 9.617188 28.722656 9.664062 28.992188 9.765625 L 29.476562 9.863281 L 30.136719 9.773438 C 30.585938 9.636719 30.992188 9.355469 31.28125 8.953125 C 31.785156 8.25 32.632812 7.929688 33.441406 8.070312 L 33.546875 8.113281 L 33.707031 8.109375 C 33.972656 8.160156 34.238281 8.257812 34.484375 8.410156 L 35.085938 8.65625 L 35.585938 8.6875 C 36.054688 8.640625 36.507812 8.445312 36.867188 8.109375 C 37.289062 7.714844 37.828125 7.515625 38.363281 7.515625 Z M 38.363281 7.515625 " fill-opacity="1" fill-rule="evenodd"/></g></svg>