<svg xmlns="http://www.w3.org/2000/svg" xmlns:xlink="http://www.w3.org/1999/xlink" width="100" zoomAndPan="magnify" viewBox="0 0 75 74.999997" height="100" preserveAspectRatio="xMidYMid meet" version="1.0"><defs><clipPath id="3aff403507"><path d="M 10.71875 46 L 63.96875 46 L 63.96875 69.75 L 10.71875 69.75 Z M 10.71875 46 " clip-rule="nonzero"/></clipPath></defs><path fill="#f87727" d="M 56.90625 23.292969 C 56.757812 22.757812 56.390625 22.3125 55.878906 22.042969 C 55.988281 20.832031 55.824219 19.34375 55.539062 18.121094 C 55.300781 17.113281 54.921875 15.988281 54.34375 14.816406 C 53.730469 13.65625 52.980469 12.421875 51.921875 11.285156 C 50.917969 10.109375 49.621094 9.039062 48.164062 8.097656 C 35.425781 0.015625 17.835938 9.574219 19.203125 22.046875 C 18.691406 22.316406 18.332031 22.757812 18.183594 23.289062 C 15.167969 23.34375 12.746094 25.585938 12.746094 28.351562 C 12.746094 31.121094 15.167969 33.367188 18.183594 33.417969 C 18.421875 34.292969 19.246094 34.953125 20.277344 34.953125 C 21.496094 34.953125 22.480469 34.050781 22.480469 32.9375 L 22.480469 23.777344 C 22.480469 23.140625 22.144531 22.597656 21.644531 22.230469 C 22.195312 19.078125 23.835938 15.746094 26.132812 13.675781 C 29.507812 10.386719 35.359375 8.488281 41.796875 9.921875 C 44.273438 10.65625 46.710938 11.898438 48.742188 13.886719 C 51 15.917969 52.835938 18.960938 53.433594 22.230469 C 52.132812 23.195312 52.601562 24.03125 52.601562 32.9375 C 52.601562 33.632812 53.011719 34.21875 53.597656 34.578125 L 53.597656 35.355469 C 53.597656 35.847656 53.457031 36.328125 53.191406 36.746094 C 50.3125 41.234375 50.121094 41.6875 45.773438 43.082031 C 44.40625 43.519531 42.859375 43.707031 41.296875 44.089844 C 39.859375 42.667969 37.320312 43.601562 37.320312 45.503906 C 37.320312 47.90625 41.070312 48.457031 41.796875 46.054688 C 42.851562 45.800781 43.9375 45.648438 44.957031 45.335938 C 50.570312 43.628906 52.402344 42.617188 55.375 36.949219 C 55.65625 36.410156 55.804688 35.816406 55.804688 35.210938 L 55.804688 34.710938 C 56.359375 34.445312 56.75 33.984375 56.90625 33.417969 C 59.917969 33.363281 62.335938 31.121094 62.335938 28.351562 C 62.335938 25.589844 59.917969 23.351562 56.90625 23.292969 " fill-opacity="1" fill-rule="nonzero"/><g clip-path="url(#3aff403507)"><path fill="#f87727" d="M 37.546875 56.035156 C 39.347656 53.507812 40.917969 51.335938 42.453125 49.140625 C 44.253906 46.570312 46.070312 45.738281 48.917969 46.699219 C 52.53125 47.917969 56.113281 49.285156 59.613281 50.808594 C 62.617188 52.117188 64.304688 54.453125 64.117188 57.921875 C 64.023438 59.628906 64.117188 61.34375 64.09375 63.050781 C 64.035156 67.761719 61.886719 69.957031 57.21875 69.980469 C 51.195312 70.015625 45.167969 69.992188 39.140625 69.992188 C 32.140625 69.992188 25.132812 70.011719 18.132812 69.984375 C 13.125 69.960938 11.015625 67.820312 10.988281 62.839844 C 10.976562 61.210938 11.066406 59.578125 10.964844 57.957031 C 10.742188 54.347656 12.601562 52.027344 15.667969 50.703125 C 19.171875 49.1875 22.769531 47.875 26.390625 46.675781 C 29.480469 45.648438 30.4375 46.105469 32.347656 48.785156 C 33.996094 51.09375 35.65625 53.394531 37.546875 56.035156 " fill-opacity="1" fill-rule="nonzero"/></g><path fill="#f87727" d="M 50.3125 25.964844 C 49.980469 30.214844 48.640625 35.648438 44.179688 39.832031 C 40.402344 43.375 34.636719 43.464844 30.917969 39.835938 C 25.769531 34.800781 24.144531 28.402344 24.941406 21.496094 C 25.355469 17.882812 27.558594 15.039062 31.261719 13.828125 C 36.761719 12.027344 42.09375 11.847656 46.9375 15.695312 C 49.765625 17.941406 50.410156 21.023438 50.3125 25.964844 " fill-opacity="1" fill-rule="nonzero"/></svg>