<svg xmlns="http://www.w3.org/2000/svg" xmlns:xlink="http://www.w3.org/1999/xlink" width="100" zoomAndPan="magnify" viewBox="0 0 75 74.999997" height="100" preserveAspectRatio="xMidYMid meet" version="1.0"><defs><clipPath id="7a6d789f9c"><path d="M 3.042969 3.042969 L 72 3.042969 L 72 72 L 3.042969 72 Z M 3.042969 3.042969 " clip-rule="nonzero"/></clipPath></defs><g clip-path="url(#7a6d789f9c)"><path fill="#f87727" d="M 37.496094 3.058594 C 36.371094 3.058594 35.246094 3.117188 34.121094 3.226562 C 33 3.335938 31.886719 3.5 30.777344 3.722656 C 29.671875 3.941406 28.578125 4.214844 27.5 4.542969 C 26.421875 4.871094 25.359375 5.25 24.320312 5.679688 C 23.277344 6.113281 22.257812 6.59375 21.261719 7.125 C 20.269531 7.65625 19.304688 8.238281 18.363281 8.863281 C 17.425781 9.492188 16.523438 10.160156 15.652344 10.875 C 14.777344 11.59375 13.945312 12.347656 13.144531 13.144531 C 12.347656 13.945312 11.59375 14.777344 10.875 15.652344 C 10.160156 16.523438 9.492188 17.425781 8.863281 18.363281 C 8.238281 19.304688 7.65625 20.269531 7.125 21.261719 C 6.59375 22.257812 6.113281 23.277344 5.679688 24.320312 C 5.25 25.359375 4.871094 26.421875 4.542969 27.5 C 4.214844 28.578125 3.941406 29.671875 3.722656 30.777344 C 3.5 31.886719 3.335938 33 3.226562 34.121094 C 3.117188 35.246094 3.058594 36.371094 3.058594 37.496094 C 3.058594 38.625 3.117188 39.75 3.226562 40.871094 C 3.335938 41.996094 3.5 43.109375 3.722656 44.214844 C 3.941406 45.320312 4.214844 46.414062 4.542969 47.492188 C 4.871094 48.574219 5.25 49.632812 5.679688 50.675781 C 6.113281 51.71875 6.59375 52.734375 7.125 53.730469 C 7.65625 54.726562 8.238281 55.691406 8.863281 56.628906 C 9.492188 57.566406 10.160156 58.472656 10.875 59.34375 C 11.59375 60.214844 12.347656 61.050781 13.144531 61.847656 C 13.945312 62.644531 14.777344 63.402344 15.652344 64.117188 C 16.523438 64.832031 17.425781 65.503906 18.363281 66.128906 C 19.304688 66.757812 20.269531 67.335938 21.261719 67.867188 C 22.257812 68.398438 23.277344 68.882812 24.320312 69.3125 C 25.359375 69.746094 26.421875 70.125 27.5 70.453125 C 28.578125 70.777344 29.671875 71.054688 30.777344 71.273438 C 31.886719 71.492188 33 71.65625 34.121094 71.769531 C 35.246094 71.878906 36.371094 71.933594 37.496094 71.933594 C 38.625 71.933594 39.75 71.878906 40.871094 71.769531 C 41.996094 71.65625 43.109375 71.492188 44.214844 71.273438 C 45.320312 71.054688 46.414062 70.777344 47.492188 70.453125 C 48.574219 70.125 49.632812 69.746094 50.675781 69.3125 C 51.71875 68.882812 52.734375 68.398438 53.730469 67.867188 C 54.726562 67.335938 55.691406 66.757812 56.628906 66.128906 C 57.566406 65.503906 58.472656 64.832031 59.34375 64.117188 C 60.214844 63.402344 61.050781 62.644531 61.847656 61.847656 C 62.644531 61.050781 63.402344 60.214844 64.117188 59.34375 C 64.832031 58.472656 65.503906 57.566406 66.128906 56.628906 C 66.757812 55.691406 67.335938 54.726562 67.867188 53.730469 C 68.398438 52.734375 68.882812 51.71875 69.3125 50.675781 C 69.746094 49.632812 70.125 48.574219 70.453125 47.492188 C 70.777344 46.414062 71.054688 45.320312 71.273438 44.214844 C 71.492188 43.109375 71.65625 41.996094 71.769531 40.871094 C 71.878906 39.75 71.933594 38.625 71.933594 37.496094 C 71.933594 36.371094 71.875 35.246094 71.765625 34.125 C 71.652344 33 71.488281 31.886719 71.265625 30.78125 C 71.046875 29.675781 70.769531 28.582031 70.441406 27.503906 C 70.113281 26.425781 69.734375 25.367188 69.300781 24.324219 C 68.871094 23.285156 68.386719 22.265625 67.855469 21.273438 C 67.324219 20.277344 66.746094 19.3125 66.117188 18.375 C 65.492188 17.4375 64.820312 16.53125 64.105469 15.660156 C 63.390625 14.789062 62.632812 13.957031 61.835938 13.15625 C 61.039062 12.359375 60.203125 11.605469 59.332031 10.890625 C 58.460938 10.171875 57.558594 9.503906 56.621094 8.875 C 55.683594 8.25 54.71875 7.667969 53.722656 7.136719 C 52.730469 6.605469 51.710938 6.125 50.667969 5.691406 C 49.628906 5.261719 48.566406 4.878906 47.488281 4.550781 C 46.410156 4.222656 45.320312 3.949219 44.214844 3.726562 C 43.105469 3.507812 41.992188 3.339844 40.871094 3.230469 C 39.75 3.117188 38.625 3.0625 37.496094 3.058594 Z M 58.570312 58.464844 C 58.554688 58.484375 58.542969 58.507812 58.527344 58.527344 C 58.507812 58.546875 58.484375 58.550781 58.464844 58.570312 C 57.777344 59.253906 57.058594 59.90625 56.304688 60.519531 C 55.554688 61.136719 54.777344 61.710938 53.96875 62.25 C 53.160156 62.789062 52.328125 63.285156 51.472656 63.742188 C 50.613281 64.199219 49.738281 64.613281 48.839844 64.984375 C 47.945312 65.355469 47.03125 65.683594 46.101562 65.964844 C 45.171875 66.246094 44.230469 66.480469 43.28125 66.667969 C 42.328125 66.859375 41.367188 67 40.402344 67.09375 C 39.4375 67.191406 38.46875 67.238281 37.496094 67.238281 C 36.527344 67.238281 35.558594 67.191406 34.59375 67.09375 C 33.625 67 32.667969 66.859375 31.714844 66.667969 C 30.761719 66.480469 29.820312 66.246094 28.894531 65.964844 C 27.964844 65.683594 27.050781 65.355469 26.152344 64.984375 C 25.257812 64.613281 24.378906 64.199219 23.523438 63.742188 C 22.667969 63.285156 21.835938 62.789062 21.027344 62.25 C 20.21875 61.710938 19.441406 61.136719 18.6875 60.519531 C 17.9375 59.90625 17.21875 59.253906 16.53125 58.570312 C 16.511719 58.550781 16.484375 58.546875 16.46875 58.527344 C 16.453125 58.507812 16.4375 58.484375 16.425781 58.464844 C 15.738281 57.777344 15.089844 57.058594 14.476562 56.304688 C 13.859375 55.554688 13.28125 54.777344 12.746094 53.96875 C 12.207031 53.160156 11.707031 52.328125 11.25 51.472656 C 10.792969 50.613281 10.378906 49.738281 10.007812 48.839844 C 9.636719 47.945312 9.3125 47.03125 9.03125 46.101562 C 8.75 45.171875 8.515625 44.230469 8.324219 43.28125 C 8.136719 42.328125 7.996094 41.367188 7.898438 40.402344 C 7.804688 39.4375 7.757812 38.46875 7.757812 37.496094 C 7.757812 36.527344 7.804688 35.558594 7.898438 34.59375 C 7.996094 33.625 8.136719 32.667969 8.324219 31.714844 C 8.515625 30.761719 8.75 29.820312 9.03125 28.894531 C 9.3125 27.964844 9.636719 27.050781 10.007812 26.152344 C 10.378906 25.257812 10.792969 24.378906 11.25 23.523438 C 11.707031 22.667969 12.207031 21.835938 12.746094 21.027344 C 13.28125 20.21875 13.859375 19.441406 14.476562 18.6875 C 15.089844 17.9375 15.738281 17.21875 16.425781 16.53125 C 16.4375 16.507812 16.453125 16.488281 16.46875 16.46875 C 16.484375 16.449219 16.511719 16.441406 16.53125 16.425781 C 17.910156 15.050781 19.40625 13.824219 21.027344 12.742188 C 22.644531 11.660156 24.351562 10.75 26.152344 10.007812 C 27.949219 9.261719 29.804688 8.703125 31.714844 8.324219 C 33.625 7.945312 35.550781 7.753906 37.496094 7.757812 C 37.679688 7.757812 37.835938 7.820312 37.964844 7.949219 C 38.09375 8.078125 38.15625 8.234375 38.15625 8.417969 L 38.15625 35.902344 L 57.597656 16.464844 C 57.726562 16.335938 57.882812 16.273438 58.0625 16.269531 C 58.074219 16.269531 58.082031 16.269531 58.089844 16.269531 C 58.167969 16.273438 58.242188 16.289062 58.3125 16.316406 C 58.394531 16.347656 58.46875 16.394531 58.53125 16.457031 C 59.21875 17.144531 59.871094 17.867188 60.488281 18.617188 C 61.105469 19.367188 61.683594 20.148438 62.222656 20.957031 C 62.761719 21.765625 63.261719 22.597656 63.722656 23.457031 C 64.179688 24.3125 64.597656 25.191406 64.96875 26.089844 C 65.339844 26.988281 65.667969 27.902344 65.953125 28.832031 C 66.234375 29.761719 66.472656 30.703125 66.660156 31.660156 C 66.851562 32.613281 66.996094 33.574219 67.089844 34.539062 C 67.1875 35.507812 67.234375 36.476562 67.238281 37.449219 C 67.238281 38.421875 67.191406 39.394531 67.097656 40.359375 C 67.003906 41.328125 66.859375 42.289062 66.671875 43.242188 C 66.484375 44.199219 66.25 45.140625 65.96875 46.070312 C 65.6875 47 65.359375 47.917969 64.988281 48.816406 C 64.617188 49.714844 64.203125 50.59375 63.746094 51.453125 C 63.289062 52.308594 62.792969 53.144531 62.253906 53.953125 C 61.714844 54.761719 61.136719 55.542969 60.519531 56.296875 C 59.90625 57.046875 59.253906 57.769531 58.566406 58.457031 Z M 58.570312 58.464844 " fill-opacity="1" fill-rule="nonzero"/></g><path fill="#f87727" d="M 61.15625 36.835938 L 65.886719 36.835938 C 65.851562 35.082031 65.65625 33.347656 65.296875 31.628906 C 64.9375 29.910156 64.425781 28.242188 63.753906 26.617188 C 63.085938 24.996094 62.273438 23.449219 61.316406 21.980469 C 60.355469 20.507812 59.269531 19.140625 58.058594 17.871094 L 37.964844 37.964844 C 37.878906 38.046875 37.777344 38.097656 37.660156 38.125 C 37.636719 38.132812 37.609375 38.136719 37.585938 38.140625 C 37.554688 38.148438 37.527344 38.152344 37.496094 38.15625 C 37.410156 38.15625 37.324219 38.140625 37.246094 38.105469 C 36.972656 37.996094 36.835938 37.792969 36.835938 37.496094 L 36.835938 9.085938 C 35.082031 9.125 33.347656 9.328125 31.632812 9.691406 C 29.917969 10.058594 28.25 10.578125 26.628906 11.25 C 25.011719 11.925781 23.46875 12.742188 22 13.703125 C 20.535156 14.664062 19.167969 15.753906 17.902344 16.96875 L 21.234375 20.300781 C 21.359375 20.429688 21.421875 20.585938 21.417969 20.765625 C 21.417969 20.945312 21.355469 21.097656 21.226562 21.226562 C 21.097656 21.355469 20.945312 21.417969 20.765625 21.417969 C 20.585938 21.421875 20.429688 21.359375 20.300781 21.234375 L 16.957031 17.894531 C 15.746094 19.160156 14.660156 20.527344 13.703125 21.996094 C 12.746094 23.464844 11.933594 25.011719 11.261719 26.628906 C 10.589844 28.25 10.074219 29.917969 9.714844 31.632812 C 9.355469 33.351562 9.15625 35.085938 9.117188 36.835938 L 13.84375 36.835938 C 14.027344 36.835938 14.183594 36.902344 14.3125 37.03125 C 14.441406 37.160156 14.503906 37.316406 14.503906 37.496094 C 14.503906 37.679688 14.441406 37.835938 14.3125 37.964844 C 14.183594 38.09375 14.027344 38.15625 13.84375 38.15625 L 9.117188 38.15625 C 9.15625 39.910156 9.355469 41.644531 9.71875 43.359375 C 10.078125 45.074219 10.597656 46.742188 11.269531 48.363281 C 11.941406 49.984375 12.753906 51.527344 13.714844 52.996094 C 14.671875 54.460938 15.757812 55.828125 16.972656 57.097656 L 20.308594 53.761719 C 20.4375 53.636719 20.59375 53.574219 20.773438 53.574219 C 20.953125 53.578125 21.105469 53.640625 21.234375 53.769531 C 21.359375 53.894531 21.425781 54.050781 21.425781 54.230469 C 21.429688 54.410156 21.367188 54.5625 21.242188 54.695312 L 17.90625 58.027344 C 19.171875 59.242188 20.539062 60.328125 22.003906 61.285156 C 23.472656 62.246094 25.015625 63.058594 26.636719 63.730469 C 28.253906 64.402344 29.921875 64.921875 31.636719 65.28125 C 33.351562 65.644531 35.085938 65.84375 36.835938 65.886719 L 36.835938 61.15625 C 36.835938 60.972656 36.902344 60.820312 37.03125 60.691406 C 37.160156 60.5625 37.316406 60.496094 37.496094 60.496094 C 37.679688 60.496094 37.835938 60.5625 37.964844 60.691406 C 38.09375 60.820312 38.15625 60.972656 38.15625 61.15625 L 38.15625 65.886719 C 39.910156 65.84375 41.644531 65.644531 43.359375 65.28125 C 45.074219 64.921875 46.742188 64.40625 48.363281 63.734375 C 49.984375 63.0625 51.527344 62.246094 52.996094 61.285156 C 54.460938 60.328125 55.828125 59.242188 57.097656 58.027344 L 53.761719 54.695312 C 53.636719 54.5625 53.574219 54.410156 53.574219 54.230469 C 53.578125 54.050781 53.640625 53.894531 53.769531 53.769531 C 53.894531 53.640625 54.050781 53.578125 54.230469 53.574219 C 54.410156 53.574219 54.5625 53.636719 54.695312 53.761719 L 58.027344 57.097656 C 59.242188 55.828125 60.328125 54.460938 61.285156 52.996094 C 62.246094 51.527344 63.0625 49.984375 63.734375 48.363281 C 64.40625 46.742188 64.921875 45.074219 65.28125 43.359375 C 65.644531 41.644531 65.84375 39.910156 65.886719 38.15625 L 61.15625 38.15625 C 60.972656 38.15625 60.820312 38.09375 60.691406 37.964844 C 60.5625 37.835938 60.496094 37.679688 60.496094 37.496094 C 60.496094 37.316406 60.5625 37.160156 60.691406 37.03125 C 60.820312 36.902344 60.972656 36.835938 61.15625 36.835938 Z M 31.90625 14.59375 C 31.90625 14.410156 31.96875 14.253906 32.097656 14.125 C 32.226562 13.996094 32.382812 13.933594 32.566406 13.933594 C 32.746094 13.933594 32.902344 13.996094 33.03125 14.125 C 33.160156 14.253906 33.226562 14.410156 33.226562 14.59375 L 33.226562 28.519531 C 33.226562 28.703125 33.160156 28.859375 33.03125 28.988281 C 32.902344 29.117188 32.746094 29.179688 32.566406 29.179688 C 32.382812 29.179688 32.226562 29.117188 32.097656 28.988281 C 31.96875 28.859375 31.90625 28.703125 31.90625 28.519531 Z M 31.90625 33.128906 C 31.90625 32.949219 31.96875 32.792969 32.097656 32.664062 C 32.226562 32.535156 32.382812 32.46875 32.566406 32.46875 C 32.746094 32.46875 32.902344 32.535156 33.03125 32.664062 C 33.160156 32.792969 33.226562 32.949219 33.226562 33.128906 L 33.226562 33.660156 C 33.226562 33.839844 33.160156 33.996094 33.03125 34.125 C 32.902344 34.253906 32.746094 34.320312 32.566406 34.320312 C 32.382812 34.320312 32.226562 34.253906 32.097656 34.125 C 31.96875 33.996094 31.90625 33.839844 31.90625 33.660156 Z M 44.285156 52.601562 L 30.707031 52.601562 C 30.433594 52.601562 30.164062 52.574219 29.898438 52.523438 C 29.628906 52.46875 29.371094 52.390625 29.117188 52.285156 C 28.867188 52.183594 28.628906 52.054688 28.398438 51.902344 C 28.171875 51.75 27.964844 51.578125 27.769531 51.386719 C 27.578125 51.191406 27.40625 50.984375 27.253906 50.757812 C 27.101562 50.53125 26.976562 50.289062 26.871094 50.039062 C 26.765625 49.785156 26.6875 49.527344 26.632812 49.257812 C 26.582031 48.992188 26.554688 48.722656 26.554688 48.449219 C 26.554688 48.175781 26.582031 47.90625 26.632812 47.636719 C 26.6875 47.371094 26.765625 47.109375 26.871094 46.859375 C 26.976562 46.605469 27.101562 46.367188 27.253906 46.140625 C 27.40625 45.914062 27.578125 45.703125 27.769531 45.511719 C 27.964844 45.316406 28.171875 45.144531 28.398438 44.996094 C 28.628906 44.84375 28.867188 44.714844 29.117188 44.609375 C 29.371094 44.507812 29.628906 44.425781 29.898438 44.375 C 30.164062 44.320312 30.433594 44.292969 30.707031 44.292969 L 44.285156 44.292969 C 44.558594 44.292969 44.828125 44.320312 45.097656 44.375 C 45.363281 44.425781 45.625 44.507812 45.875 44.609375 C 46.128906 44.714844 46.367188 44.84375 46.59375 44.996094 C 46.820312 45.144531 47.03125 45.316406 47.222656 45.511719 C 47.417969 45.703125 47.589844 45.914062 47.742188 46.140625 C 47.890625 46.367188 48.019531 46.605469 48.125 46.859375 C 48.230469 47.109375 48.308594 47.371094 48.359375 47.636719 C 48.414062 47.90625 48.441406 48.175781 48.441406 48.449219 C 48.441406 48.722656 48.414062 48.992188 48.359375 49.257812 C 48.308594 49.527344 48.230469 49.785156 48.125 50.039062 C 48.019531 50.289062 47.890625 50.53125 47.742188 50.757812 C 47.589844 50.984375 47.417969 51.191406 47.222656 51.386719 C 47.03125 51.578125 46.820312 51.75 46.59375 51.902344 C 46.367188 52.054688 46.128906 52.183594 45.875 52.285156 C 45.625 52.390625 45.363281 52.46875 45.097656 52.523438 C 44.828125 52.574219 44.558594 52.601562 44.285156 52.601562 Z M 44.285156 52.601562 " fill-opacity="1" fill-rule="nonzero"/><path fill="#f87727" d="M 44.285156 45.613281 L 30.707031 45.613281 C 30.332031 45.613281 29.972656 45.6875 29.625 45.828125 C 29.277344 45.972656 28.96875 46.179688 28.703125 46.445312 C 28.4375 46.710938 28.234375 47.015625 28.089844 47.363281 C 27.945312 47.710938 27.875 48.074219 27.875 48.449219 C 27.875 48.824219 27.945312 49.1875 28.089844 49.53125 C 28.234375 49.878906 28.4375 50.1875 28.703125 50.453125 C 28.96875 50.71875 29.277344 50.921875 29.625 51.066406 C 29.972656 51.210938 30.332031 51.28125 30.707031 51.28125 L 44.285156 51.28125 C 44.660156 51.28125 45.023438 51.210938 45.371094 51.066406 C 45.71875 50.921875 46.023438 50.71875 46.289062 50.453125 C 46.554688 50.1875 46.761719 49.878906 46.90625 49.53125 C 47.046875 49.1875 47.121094 48.824219 47.121094 48.449219 C 47.121094 48.074219 47.046875 47.710938 46.90625 47.363281 C 46.761719 47.015625 46.554688 46.710938 46.289062 46.445312 C 46.023438 46.179688 45.71875 45.972656 45.371094 45.828125 C 45.023438 45.6875 44.660156 45.613281 44.285156 45.613281 Z M 44.285156 45.613281 " fill-opacity="1" fill-rule="nonzero"/></svg>