<svg xmlns="http://www.w3.org/2000/svg" xmlns:xlink="http://www.w3.org/1999/xlink" width="100" zoomAndPan="magnify" viewBox="0 0 75 74.999997" height="100" preserveAspectRatio="xMidYMid meet" version="1.0"><defs><clipPath id="54b58cfb15"><path d="M 24 28 L 71.25 28 L 71.25 56.96875 L 24 56.96875 Z M 24 28 " clip-rule="nonzero"/></clipPath><clipPath id="ba7c1308ee"><path d="M 3.75 17.96875 L 16 17.96875 L 16 43 L 3.75 43 Z M 3.75 17.96875 " clip-rule="nonzero"/></clipPath></defs><path fill="#f87727" d="M 39.386719 39.683594 C 38.152344 39.683594 36.988281 39.203125 36.117188 38.328125 L 31.671875 33.886719 C 28.609375 36.082031 25.34375 35.933594 22.1875 33.425781 C 21.746094 33.078125 21.675781 32.441406 22.023438 32.003906 C 22.367188 31.566406 23.003906 31.492188 23.445312 31.839844 C 26.113281 33.960938 28.546875 33.933594 31.097656 31.765625 C 31.5 31.421875 32.097656 31.445312 32.46875 31.820312 L 37.546875 36.898438 C 38.039062 37.390625 38.691406 37.660156 39.386719 37.660156 C 40.078125 37.660156 40.734375 37.390625 41.222656 36.898438 C 42.238281 35.882812 42.238281 34.234375 41.222656 33.222656 L 34.476562 26.472656 C 34.082031 26.078125 34.082031 25.4375 34.476562 25.042969 C 34.871094 24.648438 35.511719 24.648438 35.90625 25.042969 L 42.65625 31.789062 C 44.457031 33.59375 44.457031 36.527344 42.65625 38.328125 C 41.78125 39.203125 40.621094 39.683594 39.386719 39.683594 Z M 39.386719 39.683594 " fill-opacity="1" fill-rule="nonzero"/><g clip-path="url(#54b58cfb15)"><path fill="#f87727" d="M 70.160156 57.023438 L 25.367188 57.023438 C 24.808594 57.023438 24.355469 56.570312 24.355469 56.011719 L 24.355469 34.09375 C 24.355469 33.535156 24.808594 33.082031 25.367188 33.082031 C 25.929688 33.082031 26.382812 33.535156 26.382812 34.09375 L 26.382812 55 L 69.148438 55 L 69.148438 30.304688 L 38.726562 30.304688 C 38.167969 30.304688 37.714844 29.851562 37.714844 29.292969 C 37.714844 28.734375 38.167969 28.28125 38.726562 28.28125 L 70.160156 28.28125 C 70.71875 28.28125 71.171875 28.734375 71.171875 29.292969 L 71.171875 56.011719 C 71.171875 56.570312 70.71875 57.023438 70.160156 57.023438 Z M 70.160156 57.023438 " fill-opacity="1" fill-rule="nonzero"/></g><path fill="#f87727" d="M 24.90625 43.003906 C 21.535156 43.003906 18.988281 42.007812 17.316406 40.03125 L 14.269531 40.03125 C 13.710938 40.03125 13.257812 39.578125 13.257812 39.019531 L 13.257812 21.730469 C 13.257812 21.171875 13.710938 20.71875 14.269531 20.71875 L 14.722656 20.71875 C 16.261719 20.71875 17.777344 20.457031 19.226562 19.941406 L 20.617188 19.449219 C 22.285156 18.859375 24.027344 18.558594 25.800781 18.558594 L 33.613281 18.558594 C 37.75 18.558594 41.644531 20.167969 44.570312 23.09375 L 50.050781 28.578125 C 50.449219 28.972656 50.449219 29.613281 50.050781 30.011719 C 49.65625 30.40625 49.015625 30.40625 48.621094 30.011719 L 43.136719 24.527344 C 40.59375 21.984375 37.210938 20.582031 33.613281 20.582031 L 25.800781 20.582031 C 24.261719 20.582031 22.746094 20.84375 21.292969 21.355469 L 19.902344 21.851562 C 18.410156 22.378906 16.859375 22.675781 15.28125 22.734375 L 15.28125 38.007812 L 17.804688 38.007812 C 18.125 38.007812 18.429688 38.160156 18.621094 38.417969 C 19.953125 40.226562 22.152344 41.0625 25.339844 40.976562 C 25.90625 40.960938 26.363281 41.398438 26.378906 41.957031 C 26.394531 42.519531 25.957031 42.984375 25.398438 43 C 25.230469 43.003906 25.066406 43.003906 24.90625 43.003906 Z M 24.90625 43.003906 " fill-opacity="1" fill-rule="nonzero"/><g clip-path="url(#ba7c1308ee)"><path fill="#f87727" d="M 14.269531 42.78125 L 4.839844 42.78125 C 4.28125 42.78125 3.828125 42.328125 3.828125 41.769531 L 3.828125 18.980469 C 3.828125 18.421875 4.28125 17.96875 4.839844 17.96875 L 14.269531 17.96875 C 14.828125 17.96875 15.28125 18.421875 15.28125 18.980469 L 15.28125 41.769531 C 15.28125 42.328125 14.828125 42.78125 14.269531 42.78125 Z M 5.851562 40.757812 L 13.257812 40.757812 L 13.257812 19.992188 L 5.851562 19.992188 Z M 5.851562 40.757812 " fill-opacity="1" fill-rule="nonzero"/></g><path fill="#f87727" d="M 47.667969 47.792969 C 44.78125 47.792969 42.429688 45.441406 42.429688 42.554688 C 42.429688 39.667969 44.78125 37.320312 47.667969 37.320312 C 50.554688 37.320312 52.902344 39.667969 52.902344 42.554688 C 52.902344 45.441406 50.554688 47.792969 47.667969 47.792969 Z M 47.667969 39.34375 C 45.894531 39.34375 44.457031 40.785156 44.457031 42.554688 C 44.457031 44.328125 45.894531 45.765625 47.667969 45.765625 C 49.4375 45.765625 50.878906 44.328125 50.878906 42.554688 C 50.878906 40.785156 49.4375 39.34375 47.667969 39.34375 Z M 47.667969 39.34375 " fill-opacity="1" fill-rule="nonzero"/><path fill="#f87727" d="M 61.632812 52.308594 L 34.09375 52.308594 C 33.535156 52.308594 33.082031 51.855469 33.082031 51.296875 C 33.082031 49.535156 31.648438 48.105469 29.886719 48.105469 C 29.328125 48.105469 28.875 47.652344 28.875 47.089844 L 28.875 37.824219 C 28.875 37.261719 29.328125 36.808594 29.886719 36.808594 C 31.289062 36.808594 32.515625 35.914062 32.933594 34.578125 C 33.101562 34.042969 33.671875 33.746094 34.203125 33.914062 C 34.738281 34.082031 35.035156 34.652344 34.867188 35.183594 C 34.28125 37.039062 32.75 38.375 30.898438 38.738281 L 30.898438 46.179688 C 32.964844 46.585938 34.597656 48.21875 35.007812 50.285156 L 60.71875 50.285156 C 61.128906 48.21875 62.757812 46.585938 64.828125 46.179688 L 64.828125 38.734375 C 62.757812 38.328125 61.128906 36.695312 60.71875 34.628906 L 42.695312 34.628906 C 42.136719 34.628906 41.683594 34.175781 41.683594 33.617188 C 41.683594 33.058594 42.136719 32.605469 42.695312 32.605469 L 61.632812 32.605469 C 62.191406 32.605469 62.644531 33.058594 62.644531 33.617188 C 62.644531 35.378906 64.078125 36.808594 65.839844 36.808594 C 66.398438 36.808594 66.851562 37.261719 66.851562 37.824219 L 66.851562 47.089844 C 66.851562 47.652344 66.398438 48.105469 65.839844 48.105469 C 64.078125 48.105469 62.644531 49.535156 62.644531 51.296875 C 62.644531 51.855469 62.191406 52.308594 61.632812 52.308594 Z M 61.632812 52.308594 " fill-opacity="1" fill-rule="nonzero"/></svg>