<svg xmlns="http://www.w3.org/2000/svg" xmlns:xlink="http://www.w3.org/1999/xlink" width="100" zoomAndPan="magnify" viewBox="0 0 75 74.999997" height="100" preserveAspectRatio="xMidYMid meet" version="1.0"><defs><clipPath id="cf19617644"><path d="M 3.253906 5.394531 L 53 5.394531 L 53 69.894531 L 3.253906 69.894531 Z M 3.253906 5.394531 " clip-rule="nonzero"/></clipPath><clipPath id="32caad2bcc"><path d="M 42 30 L 71.503906 30 L 71.503906 60 L 42 60 Z M 42 30 " clip-rule="nonzero"/></clipPath><clipPath id="6e3013f2b4"><path d="M 63 30 L 71.503906 30 L 71.503906 39 L 63 39 Z M 63 30 " clip-rule="nonzero"/></clipPath></defs><g clip-path="url(#cf19617644)"><path fill="#f87727" d="M 49.621094 69.472656 L 6.246094 69.472656 C 5.847656 69.472656 5.464844 69.398438 5.101562 69.246094 C 4.734375 69.09375 4.410156 68.878906 4.128906 68.597656 C 3.847656 68.316406 3.632812 67.992188 3.480469 67.625 C 3.328125 67.261719 3.253906 66.878906 3.253906 66.484375 L 3.253906 8.582031 C 3.253906 8.1875 3.328125 7.804688 3.480469 7.4375 C 3.632812 7.074219 3.847656 6.75 4.128906 6.46875 C 4.410156 6.1875 4.734375 5.972656 5.101562 5.820312 C 5.464844 5.667969 5.847656 5.59375 6.246094 5.589844 L 49.621094 5.589844 C 50.019531 5.59375 50.398438 5.667969 50.765625 5.820312 C 51.132812 5.972656 51.457031 6.1875 51.738281 6.46875 C 52.015625 6.75 52.234375 7.074219 52.386719 7.4375 C 52.535156 7.804688 52.613281 8.1875 52.613281 8.582031 L 52.613281 46.132812 C 52.613281 46.328125 52.542969 46.496094 52.40625 46.636719 L 44.273438 54.769531 L 47.46875 57.96875 L 51.402344 54.035156 C 51.625 53.8125 51.882812 53.761719 52.175781 53.882812 C 52.46875 54.003906 52.617188 54.222656 52.617188 54.539062 L 52.617188 66.484375 C 52.613281 66.878906 52.539062 67.261719 52.386719 67.628906 C 52.234375 67.992188 52.019531 68.316406 51.738281 68.597656 C 51.457031 68.878906 51.132812 69.09375 50.765625 69.246094 C 50.402344 69.398438 50.019531 69.472656 49.621094 69.472656 Z M 6.246094 7.011719 C 6.035156 7.011719 5.835938 7.050781 5.644531 7.132812 C 5.449219 7.210938 5.28125 7.324219 5.132812 7.472656 C 4.988281 7.617188 4.875 7.789062 4.792969 7.980469 C 4.714844 8.171875 4.671875 8.375 4.671875 8.582031 L 4.671875 66.480469 C 4.671875 66.6875 4.714844 66.890625 4.792969 67.082031 C 4.875 67.273438 4.988281 67.445312 5.132812 67.589844 C 5.28125 67.738281 5.449219 67.851562 5.644531 67.933594 C 5.835938 68.011719 6.035156 68.050781 6.246094 68.050781 L 49.621094 68.050781 C 49.832031 68.050781 50.03125 68.011719 50.222656 67.933594 C 50.414062 67.851562 50.585938 67.738281 50.734375 67.589844 C 50.878906 67.445312 50.992188 67.273438 51.074219 67.082031 C 51.152344 66.890625 51.191406 66.6875 51.191406 66.480469 L 51.191406 56.25 L 47.96875 59.476562 C 47.828125 59.617188 47.664062 59.683594 47.464844 59.683594 C 47.269531 59.683594 47.101562 59.617188 46.964844 59.476562 L 42.765625 55.269531 C 42.625 55.132812 42.554688 54.964844 42.554688 54.769531 C 42.554688 54.574219 42.625 54.40625 42.765625 54.265625 L 51.191406 45.839844 L 51.191406 8.582031 C 51.191406 8.375 51.152344 8.171875 51.074219 7.980469 C 50.992188 7.789062 50.878906 7.617188 50.734375 7.472656 C 50.585938 7.324219 50.414062 7.210938 50.222656 7.132812 C 50.03125 7.050781 49.832031 7.011719 49.621094 7.011719 Z M 51.902344 46.132812 Z M 51.902344 46.132812 " fill-opacity="1" fill-rule="nonzero"/></g><path fill="#f87727" d="M 11.894531 17.199219 C 11.699219 17.199219 11.53125 17.128906 11.390625 16.988281 L 10.125 15.722656 C 9.980469 15.585938 9.910156 15.417969 9.910156 15.21875 C 9.90625 15.019531 9.976562 14.847656 10.117188 14.707031 C 10.257812 14.570312 10.425781 14.5 10.625 14.5 C 10.824219 14.503906 10.992188 14.574219 11.128906 14.71875 L 11.894531 15.480469 L 13.839844 13.539062 C 13.976562 13.402344 14.144531 13.335938 14.335938 13.339844 C 14.53125 13.339844 14.695312 13.410156 14.832031 13.546875 C 14.972656 13.683594 15.039062 13.847656 15.042969 14.042969 C 15.042969 14.238281 14.976562 14.402344 14.84375 14.542969 L 12.394531 16.988281 C 12.257812 17.128906 12.089844 17.199219 11.894531 17.199219 Z M 11.894531 17.199219 " fill-opacity="1" fill-rule="nonzero"/><path fill="#f87727" d="M 15.609375 19.710938 L 9.363281 19.710938 C 9.1875 19.710938 9.015625 19.675781 8.855469 19.609375 C 8.691406 19.542969 8.550781 19.445312 8.425781 19.320312 C 8.300781 19.199219 8.203125 19.054688 8.136719 18.890625 C 8.070312 18.730469 8.035156 18.5625 8.035156 18.386719 L 8.035156 12.140625 C 8.035156 11.96875 8.070312 11.796875 8.136719 11.636719 C 8.207031 11.472656 8.300781 11.332031 8.425781 11.207031 C 8.550781 11.082031 8.695312 10.988281 8.855469 10.921875 C 9.019531 10.855469 9.1875 10.820312 9.363281 10.820312 L 15.613281 10.820312 C 15.789062 10.820312 15.957031 10.855469 16.121094 10.921875 C 16.28125 10.988281 16.425781 11.085938 16.550781 11.207031 C 16.675781 11.332031 16.769531 11.476562 16.835938 11.636719 C 16.90625 11.800781 16.9375 11.96875 16.9375 12.144531 L 16.9375 18.386719 C 16.9375 18.5625 16.902344 18.734375 16.835938 18.894531 C 16.769531 19.058594 16.671875 19.199219 16.546875 19.324219 C 16.421875 19.449219 16.28125 19.542969 16.117188 19.609375 C 15.953125 19.675781 15.785156 19.710938 15.609375 19.710938 Z M 9.457031 18.289062 L 15.511719 18.289062 L 15.511719 12.242188 L 9.457031 12.242188 Z M 9.457031 18.289062 " fill-opacity="1" fill-rule="nonzero"/><path fill="#f87727" d="M 47.121094 14.097656 L 21.027344 14.097656 C 20.832031 14.097656 20.664062 14.027344 20.523438 13.886719 C 20.386719 13.75 20.316406 13.582031 20.316406 13.386719 C 20.316406 13.191406 20.386719 13.023438 20.523438 12.882812 C 20.664062 12.746094 20.832031 12.675781 21.027344 12.675781 L 47.121094 12.675781 C 47.316406 12.675781 47.484375 12.746094 47.625 12.882812 C 47.761719 13.023438 47.832031 13.191406 47.832031 13.386719 C 47.832031 13.582031 47.761719 13.75 47.625 13.886719 C 47.484375 14.027344 47.316406 14.097656 47.121094 14.097656 Z M 47.121094 14.097656 " fill-opacity="1" fill-rule="nonzero"/><path fill="#f87727" d="M 47.121094 17.855469 L 21.027344 17.855469 C 20.832031 17.855469 20.664062 17.785156 20.523438 17.644531 C 20.386719 17.507812 20.316406 17.339844 20.316406 17.144531 C 20.316406 16.945312 20.386719 16.78125 20.523438 16.640625 C 20.664062 16.503906 20.832031 16.433594 21.027344 16.433594 L 47.121094 16.433594 C 47.316406 16.433594 47.484375 16.503906 47.625 16.640625 C 47.761719 16.78125 47.832031 16.945312 47.832031 17.144531 C 47.832031 17.339844 47.761719 17.507812 47.625 17.644531 C 47.484375 17.785156 47.316406 17.855469 47.121094 17.855469 Z M 47.121094 17.855469 " fill-opacity="1" fill-rule="nonzero"/><path fill="#f87727" d="M 11.894531 31.707031 C 11.699219 31.707031 11.53125 31.636719 11.390625 31.5 L 10.125 30.234375 C 9.984375 30.09375 9.910156 29.925781 9.910156 29.726562 C 9.90625 29.527344 9.976562 29.359375 10.117188 29.21875 C 10.257812 29.078125 10.425781 29.007812 10.625 29.011719 C 10.824219 29.011719 10.992188 29.085938 11.128906 29.226562 L 11.894531 29.992188 L 13.839844 28.046875 C 13.976562 27.90625 14.144531 27.835938 14.339844 27.835938 C 14.535156 27.835938 14.703125 27.90625 14.84375 28.046875 C 14.980469 28.183594 15.050781 28.351562 15.050781 28.546875 C 15.050781 28.746094 14.980469 28.910156 14.84375 29.050781 L 12.394531 31.496094 C 12.257812 31.636719 12.089844 31.707031 11.894531 31.707031 Z M 11.894531 31.707031 " fill-opacity="1" fill-rule="nonzero"/><path fill="#f87727" d="M 15.609375 34.21875 L 9.363281 34.21875 C 9.1875 34.21875 9.015625 34.183594 8.855469 34.117188 C 8.691406 34.050781 8.550781 33.953125 8.425781 33.832031 C 8.300781 33.707031 8.203125 33.5625 8.136719 33.398438 C 8.070312 33.238281 8.035156 33.070312 8.035156 32.894531 L 8.035156 26.652344 C 8.035156 26.476562 8.070312 26.304688 8.136719 26.144531 C 8.203125 25.980469 8.300781 25.835938 8.425781 25.714844 C 8.550781 25.589844 8.691406 25.492188 8.855469 25.425781 C 9.015625 25.359375 9.1875 25.324219 9.363281 25.324219 L 15.613281 25.324219 C 15.789062 25.324219 15.957031 25.359375 16.121094 25.425781 C 16.28125 25.492188 16.425781 25.589844 16.550781 25.714844 C 16.675781 25.839844 16.769531 25.980469 16.835938 26.144531 C 16.90625 26.304688 16.9375 26.476562 16.9375 26.652344 L 16.9375 32.894531 C 16.9375 33.070312 16.90625 33.238281 16.835938 33.402344 C 16.769531 33.5625 16.671875 33.707031 16.546875 33.832031 C 16.425781 33.957031 16.28125 34.050781 16.117188 34.117188 C 15.953125 34.183594 15.785156 34.21875 15.609375 34.21875 Z M 9.457031 32.796875 L 15.511719 32.796875 L 15.511719 26.746094 L 9.457031 26.746094 Z M 9.457031 32.796875 " fill-opacity="1" fill-rule="nonzero"/><path fill="#f87727" d="M 47.121094 28.605469 L 21.027344 28.605469 C 20.832031 28.605469 20.664062 28.535156 20.523438 28.394531 C 20.386719 28.257812 20.316406 28.089844 20.316406 27.894531 C 20.316406 27.699219 20.386719 27.53125 20.523438 27.390625 C 20.664062 27.253906 20.832031 27.183594 21.027344 27.183594 L 47.121094 27.183594 C 47.316406 27.183594 47.484375 27.253906 47.625 27.390625 C 47.761719 27.53125 47.832031 27.699219 47.832031 27.894531 C 47.832031 28.089844 47.761719 28.257812 47.625 28.394531 C 47.484375 28.535156 47.316406 28.605469 47.121094 28.605469 Z M 47.121094 28.605469 " fill-opacity="1" fill-rule="nonzero"/><path fill="#f87727" d="M 47.121094 32.359375 L 21.027344 32.359375 C 20.832031 32.359375 20.664062 32.289062 20.523438 32.152344 C 20.386719 32.011719 20.316406 31.847656 20.316406 31.648438 C 20.316406 31.453125 20.386719 31.285156 20.523438 31.148438 C 20.664062 31.007812 20.832031 30.941406 21.027344 30.941406 L 47.121094 30.941406 C 47.316406 30.941406 47.484375 31.007812 47.625 31.148438 C 47.761719 31.285156 47.832031 31.453125 47.832031 31.648438 C 47.832031 31.847656 47.761719 32.011719 47.625 32.152344 C 47.484375 32.289062 47.316406 32.359375 47.121094 32.359375 Z M 47.121094 32.359375 " fill-opacity="1" fill-rule="nonzero"/><path fill="#f87727" d="M 11.894531 46.214844 C 11.699219 46.214844 11.53125 46.144531 11.390625 46.007812 L 10.125 44.738281 C 9.984375 44.601562 9.910156 44.433594 9.910156 44.234375 C 9.90625 44.035156 9.976562 43.867188 10.117188 43.726562 C 10.257812 43.585938 10.425781 43.515625 10.625 43.519531 C 10.824219 43.519531 10.992188 43.59375 11.128906 43.734375 L 11.894531 44.5 L 13.839844 42.554688 C 13.976562 42.417969 14.144531 42.351562 14.335938 42.355469 C 14.53125 42.355469 14.695312 42.425781 14.832031 42.5625 C 14.972656 42.699219 15.039062 42.863281 15.042969 43.058594 C 15.042969 43.253906 14.976562 43.417969 14.84375 43.558594 L 12.394531 46.007812 C 12.257812 46.144531 12.089844 46.214844 11.894531 46.214844 Z M 11.894531 46.214844 " fill-opacity="1" fill-rule="nonzero"/><path fill="#f87727" d="M 15.609375 48.726562 L 9.363281 48.726562 C 9.1875 48.726562 9.015625 48.691406 8.855469 48.625 C 8.691406 48.558594 8.550781 48.460938 8.425781 48.339844 C 8.300781 48.214844 8.203125 48.070312 8.136719 47.910156 C 8.070312 47.746094 8.035156 47.578125 8.035156 47.402344 L 8.035156 41.160156 C 8.035156 40.984375 8.070312 40.8125 8.136719 40.652344 C 8.203125 40.488281 8.300781 40.347656 8.425781 40.222656 C 8.550781 40.097656 8.691406 40 8.855469 39.933594 C 9.015625 39.867188 9.1875 39.832031 9.363281 39.832031 L 15.613281 39.832031 C 15.789062 39.832031 15.957031 39.867188 16.121094 39.933594 C 16.28125 40.003906 16.425781 40.097656 16.550781 40.222656 C 16.675781 40.347656 16.769531 40.488281 16.835938 40.652344 C 16.90625 40.8125 16.9375 40.984375 16.9375 41.160156 L 16.9375 47.402344 C 16.9375 47.578125 16.90625 47.746094 16.835938 47.910156 C 16.769531 48.070312 16.671875 48.214844 16.546875 48.339844 C 16.421875 48.464844 16.28125 48.558594 16.117188 48.625 C 15.953125 48.691406 15.785156 48.726562 15.609375 48.726562 Z M 9.457031 47.304688 L 15.511719 47.304688 L 15.511719 41.253906 L 9.457031 41.253906 Z M 9.457031 47.304688 " fill-opacity="1" fill-rule="nonzero"/><path fill="#f87727" d="M 47.121094 43.113281 L 21.027344 43.113281 C 20.832031 43.113281 20.664062 43.042969 20.523438 42.902344 C 20.386719 42.765625 20.316406 42.597656 20.316406 42.402344 C 20.316406 42.207031 20.386719 42.039062 20.523438 41.898438 C 20.664062 41.761719 20.832031 41.691406 21.027344 41.691406 L 47.121094 41.691406 C 47.316406 41.691406 47.484375 41.761719 47.625 41.898438 C 47.761719 42.039062 47.832031 42.207031 47.832031 42.402344 C 47.832031 42.597656 47.761719 42.765625 47.625 42.902344 C 47.484375 43.042969 47.316406 43.113281 47.121094 43.113281 Z M 47.121094 43.113281 " fill-opacity="1" fill-rule="nonzero"/><path fill="#f87727" d="M 47.121094 46.867188 L 21.027344 46.867188 C 20.832031 46.867188 20.664062 46.800781 20.523438 46.660156 C 20.386719 46.523438 20.316406 46.355469 20.316406 46.15625 C 20.316406 45.960938 20.386719 45.792969 20.523438 45.65625 C 20.664062 45.515625 20.832031 45.449219 21.027344 45.449219 L 47.121094 45.449219 C 47.316406 45.449219 47.484375 45.515625 47.625 45.65625 C 47.761719 45.792969 47.832031 45.960938 47.832031 46.15625 C 47.832031 46.355469 47.761719 46.523438 47.625 46.660156 C 47.484375 46.800781 47.316406 46.867188 47.121094 46.867188 Z M 47.121094 46.867188 " fill-opacity="1" fill-rule="nonzero"/><path fill="#f87727" d="M 11.894531 60.722656 C 11.699219 60.722656 11.53125 60.652344 11.390625 60.515625 L 10.125 59.25 C 9.984375 59.109375 9.910156 58.941406 9.910156 58.742188 C 9.90625 58.542969 9.976562 58.375 10.117188 58.234375 C 10.257812 58.09375 10.425781 58.023438 10.625 58.027344 C 10.824219 58.027344 10.992188 58.101562 11.128906 58.242188 L 11.894531 59.007812 L 13.839844 57.0625 C 13.976562 56.933594 14.144531 56.871094 14.332031 56.875 C 14.519531 56.882812 14.683594 56.949219 14.816406 57.082031 C 14.953125 57.21875 15.019531 57.378906 15.027344 57.570312 C 15.03125 57.757812 14.96875 57.921875 14.84375 58.0625 L 12.394531 60.515625 C 12.257812 60.652344 12.089844 60.722656 11.894531 60.722656 Z M 11.894531 60.722656 " fill-opacity="1" fill-rule="nonzero"/><path fill="#f87727" d="M 15.609375 63.234375 L 9.363281 63.234375 C 9.1875 63.234375 9.015625 63.199219 8.855469 63.132812 C 8.691406 63.066406 8.550781 62.96875 8.425781 62.847656 C 8.300781 62.722656 8.203125 62.578125 8.136719 62.417969 C 8.070312 62.253906 8.035156 62.085938 8.035156 61.910156 L 8.035156 55.667969 C 8.035156 55.492188 8.070312 55.320312 8.136719 55.160156 C 8.203125 54.996094 8.300781 54.855469 8.425781 54.730469 C 8.550781 54.605469 8.691406 54.511719 8.855469 54.441406 C 9.015625 54.375 9.1875 54.339844 9.363281 54.339844 L 15.613281 54.339844 C 15.789062 54.339844 15.957031 54.375 16.121094 54.441406 C 16.28125 54.511719 16.425781 54.605469 16.550781 54.730469 C 16.675781 54.855469 16.769531 54.996094 16.835938 55.160156 C 16.90625 55.324219 16.9375 55.492188 16.9375 55.667969 L 16.9375 61.910156 C 16.9375 62.085938 16.90625 62.253906 16.835938 62.417969 C 16.769531 62.578125 16.671875 62.722656 16.546875 62.847656 C 16.425781 62.972656 16.28125 63.066406 16.117188 63.132812 C 15.953125 63.203125 15.785156 63.234375 15.609375 63.234375 Z M 9.457031 61.8125 L 15.511719 61.8125 L 15.511719 55.761719 L 9.457031 55.761719 Z M 9.457031 61.8125 " fill-opacity="1" fill-rule="nonzero"/><path fill="#f87727" d="M 38.980469 57.621094 L 21.027344 57.621094 C 20.832031 57.621094 20.664062 57.550781 20.523438 57.410156 C 20.386719 57.273438 20.316406 57.105469 20.316406 56.910156 C 20.316406 56.714844 20.386719 56.546875 20.523438 56.40625 C 20.664062 56.269531 20.832031 56.199219 21.027344 56.199219 L 38.980469 56.199219 C 39.179688 56.199219 39.34375 56.269531 39.484375 56.40625 C 39.621094 56.546875 39.691406 56.714844 39.691406 56.910156 C 39.691406 57.105469 39.621094 57.273438 39.484375 57.410156 C 39.34375 57.550781 39.179688 57.621094 38.980469 57.621094 Z M 38.980469 57.621094 " fill-opacity="1" fill-rule="nonzero"/><path fill="#f87727" d="M 37.199219 61.375 L 21.027344 61.375 C 20.832031 61.375 20.664062 61.304688 20.523438 61.167969 C 20.386719 61.027344 20.316406 60.863281 20.316406 60.664062 C 20.316406 60.46875 20.386719 60.300781 20.523438 60.164062 C 20.664062 60.023438 20.832031 59.957031 21.027344 59.957031 L 37.199219 59.957031 C 37.394531 59.957031 37.5625 60.023438 37.703125 60.164062 C 37.839844 60.300781 37.910156 60.46875 37.910156 60.664062 C 37.910156 60.863281 37.839844 61.027344 37.703125 61.167969 C 37.5625 61.304688 37.394531 61.375 37.199219 61.375 Z M 37.199219 61.375 " fill-opacity="1" fill-rule="nonzero"/><g clip-path="url(#32caad2bcc)"><path fill="#f87727" d="M 47.464844 59.683594 C 47.269531 59.683594 47.101562 59.617188 46.964844 59.476562 L 42.765625 55.269531 C 42.625 55.132812 42.554688 54.964844 42.554688 54.769531 C 42.554688 54.574219 42.625 54.40625 42.765625 54.265625 L 65.167969 31.863281 C 65.886719 31.140625 66.753906 30.78125 67.773438 30.78125 L 67.78125 30.78125 C 68.144531 30.785156 68.5 30.835938 68.847656 30.945312 C 69.195312 31.050781 69.519531 31.203125 69.820312 31.40625 C 70.121094 31.609375 70.386719 31.851562 70.617188 32.132812 C 70.847656 32.414062 71.035156 32.722656 71.171875 33.058594 C 71.3125 33.394531 71.398438 33.742188 71.433594 34.105469 C 71.46875 34.464844 71.449219 34.824219 71.378906 35.183594 C 71.308594 35.539062 71.1875 35.878906 71.015625 36.199219 C 70.84375 36.519531 70.628906 36.808594 70.371094 37.0625 L 47.96875 59.476562 C 47.828125 59.617188 47.664062 59.683594 47.464844 59.683594 Z M 44.269531 54.769531 L 47.464844 57.96875 L 69.367188 36.0625 C 69.691406 35.738281 69.898438 35.355469 69.988281 34.90625 C 70.074219 34.460938 70.035156 34.023438 69.859375 33.601562 C 69.683594 33.179688 69.410156 32.84375 69.03125 32.589844 C 68.652344 32.335938 68.234375 32.207031 67.777344 32.207031 C 67.152344 32.203125 66.617188 32.425781 66.175781 32.867188 Z M 44.269531 54.769531 " fill-opacity="1" fill-rule="nonzero"/></g><g clip-path="url(#6e3013f2b4)"><path fill="#f87727" d="M 68.46875 38.679688 C 68.273438 38.683594 68.105469 38.613281 67.96875 38.472656 L 63.765625 34.273438 C 63.625 34.132812 63.558594 33.964844 63.558594 33.769531 C 63.558594 33.574219 63.625 33.40625 63.765625 33.265625 L 65.171875 31.859375 C 65.515625 31.515625 65.914062 31.25 66.367188 31.0625 C 66.816406 30.875 67.285156 30.78125 67.773438 30.78125 C 68.261719 30.78125 68.730469 30.875 69.183594 31.0625 C 69.632812 31.25 70.03125 31.515625 70.378906 31.859375 C 70.722656 32.207031 70.988281 32.605469 71.175781 33.054688 C 71.363281 33.503906 71.457031 33.976562 71.457031 34.464844 C 71.457031 34.953125 71.363281 35.421875 71.175781 35.871094 C 70.988281 36.324219 70.722656 36.722656 70.378906 37.066406 L 68.972656 38.472656 C 68.832031 38.613281 68.664062 38.683594 68.46875 38.679688 Z M 65.273438 33.765625 L 68.46875 36.964844 L 69.375 36.058594 C 69.585938 35.847656 69.746094 35.601562 69.859375 35.328125 C 69.972656 35.050781 70.03125 34.761719 70.03125 34.460938 C 70.027344 34.164062 69.972656 33.875 69.855469 33.601562 C 69.742188 33.324219 69.578125 33.078125 69.367188 32.867188 C 69.15625 32.65625 68.914062 32.492188 68.636719 32.378906 C 68.359375 32.265625 68.074219 32.207031 67.773438 32.207031 C 67.472656 32.207031 67.1875 32.261719 66.910156 32.375 C 66.632812 32.488281 66.390625 32.652344 66.175781 32.863281 Z M 65.273438 33.765625 " fill-opacity="1" fill-rule="nonzero"/></g><path fill="#f87727" d="M 41.417969 61.53125 C 41.304688 61.53125 41.199219 61.507812 41.097656 61.457031 C 40.996094 61.40625 40.914062 61.335938 40.84375 61.242188 C 40.777344 61.152344 40.734375 61.050781 40.714844 60.941406 C 40.699219 60.832031 40.703125 60.722656 40.738281 60.613281 L 42.585938 54.5625 C 42.621094 54.445312 42.683594 54.339844 42.773438 54.253906 C 42.863281 54.167969 42.972656 54.113281 43.089844 54.082031 C 43.210938 54.050781 43.332031 54.054688 43.453125 54.085938 C 43.574219 54.121094 43.675781 54.179688 43.765625 54.269531 L 47.96875 58.46875 C 48.054688 58.558594 48.117188 58.664062 48.148438 58.78125 C 48.183594 58.902344 48.183594 59.023438 48.152344 59.144531 C 48.125 59.265625 48.066406 59.371094 47.980469 59.460938 C 47.894531 59.550781 47.792969 59.617188 47.671875 59.652344 L 41.621094 61.5 C 41.554688 61.519531 41.488281 61.53125 41.417969 61.53125 Z M 43.597656 56.109375 L 42.484375 59.75 L 46.128906 58.640625 Z M 43.597656 56.109375 " fill-opacity="1" fill-rule="nonzero"/></svg>