<svg xmlns="http://www.w3.org/2000/svg" xmlns:xlink="http://www.w3.org/1999/xlink" width="100" zoomAndPan="magnify" viewBox="0 0 75 74.999997" height="100" preserveAspectRatio="xMidYMid meet" version="1.0"><defs><clipPath id="1e82c68b2c"><path d="M 4.964844 8 L 65 8 L 65 68.746094 L 4.964844 68.746094 Z M 4.964844 8 " clip-rule="nonzero"/></clipPath><clipPath id="70d720780d"><path d="M 15 6.496094 L 70 6.496094 L 70 57 L 15 57 Z M 15 6.496094 " clip-rule="nonzero"/></clipPath></defs><g clip-path="url(#1e82c68b2c)"><path fill="#f87727" d="M 34.765625 68.5 C 30.742188 68.5 26.839844 67.714844 23.164062 66.160156 C 19.617188 64.65625 16.429688 62.507812 13.695312 59.773438 C 10.957031 57.039062 8.808594 53.851562 7.308594 50.300781 C 5.753906 46.628906 4.964844 42.726562 4.964844 38.703125 C 4.964844 34.679688 5.753906 30.777344 7.308594 27.101562 C 8.808594 23.554688 10.957031 20.367188 13.695312 17.632812 C 16.429688 14.894531 19.617188 12.746094 23.164062 11.246094 C 26.839844 9.691406 30.742188 8.902344 34.765625 8.902344 C 38.789062 8.902344 42.691406 9.691406 46.367188 11.246094 C 49.914062 12.746094 53.101562 14.894531 55.835938 17.632812 C 58.574219 20.367188 60.722656 23.554688 62.222656 27.101562 C 63.777344 30.777344 64.566406 34.679688 64.566406 38.703125 C 64.566406 42.726562 63.777344 46.628906 62.222656 50.300781 C 60.722656 53.851562 58.574219 57.039062 55.835938 59.773438 C 53.101562 62.507812 49.914062 64.65625 46.367188 66.160156 C 42.691406 67.714844 38.789062 68.5 34.765625 68.5 Z M 34.765625 12.542969 C 20.34375 12.542969 8.609375 24.277344 8.609375 38.703125 C 8.609375 53.125 20.34375 64.859375 34.765625 64.859375 C 49.1875 64.859375 60.921875 53.125 60.921875 38.703125 C 60.921875 24.277344 49.1875 12.542969 34.765625 12.542969 Z M 34.765625 12.542969 " fill-opacity="1" fill-rule="nonzero"/></g><g clip-path="url(#70d720780d)"><path fill="#f87727" d="M 32.257812 43.550781 C 32.257812 43.550781 41.609375 28.941406 49.628906 19.5 C 57.644531 10.058594 60.523438 7.089844 63.433594 6.792969 C 66.34375 6.496094 69.550781 7.503906 69.789062 9.109375 C 70.027344 10.710938 65.511719 14.335938 61.414062 18.964844 C 57.316406 23.597656 47.933594 35.625 43.035156 43.550781 C 38.136719 51.480469 37.335938 56.46875 31.902344 56.46875 C 26.46875 56.46875 26.199219 53.882812 23.707031 49.429688 C 21.210938 44.976562 16.757812 36.648438 15.824219 35.132812 C 14.890625 33.617188 16.089844 31.703125 18.628906 30.992188 C 21.167969 30.277344 24.640625 29.609375 26.335938 32.59375 C 28.027344 35.578125 32.257812 43.550781 32.257812 43.550781 Z M 32.257812 43.550781 " fill-opacity="1" fill-rule="nonzero"/></g></svg>